<svg width="97" height="108" viewBox="0 0 97 108" fill="none" xmlns="http://www.w3.org/2000/svg">
<path d="M66.6923 88.8113L66.6933 88.8103C67.6261 87.8821 67.8584 86.9155 67.8584 85.8373C67.8584 83.5668 66.0323 81.5174 63.52 81.5174H56.3444C56.3041 81.5174 56.2012 81.4897 56.094 81.3833C55.9865 81.2766 55.9609 81.1767 55.9609 81.1414C55.9609 81.1056 55.9866 81.0057 56.0937 80.8993C56.2005 80.7933 56.3032 80.7654 56.3444 80.7654H63.52C66.3196 80.7654 68.624 83.0618 68.624 85.8373C68.624 87.1524 68.1282 88.4594 67.1447 89.4386L67.1154 89.4678L67.0896 89.4999C66.5313 90.1936 65.2846 90.7223 63.708 90.7223C63.6679 90.7223 63.5655 90.6948 63.4587 90.5885C63.3516 90.4821 63.3258 90.3822 63.3258 90.3463C63.3258 90.3084 63.3523 90.2077 63.459 90.1015C63.5657 89.9952 63.668 89.9678 63.708 89.9678C64.8262 89.9678 65.9678 89.5294 66.6923 88.8113Z" fill="#406DA2" stroke="#406DA2" stroke-width="1.5"/>
<path d="M29.4919 82.0496L29.4925 82.049C30.4757 81.0701 31.7919 80.576 33.1172 80.576H40.2928C40.3331 80.576 40.4357 80.6037 40.5428 80.7101C40.65 80.8166 40.6763 80.9171 40.6763 80.9545C40.6763 80.9904 40.6505 81.0902 40.5435 81.1966C40.4367 81.3027 40.334 81.3306 40.2928 81.3306H33.1172C31.9993 81.3306 30.8572 81.7689 30.1337 82.4877L30.1328 82.4885C29.685 82.9349 29.3835 83.4039 29.2004 83.9193C29.0198 84.4278 28.9681 84.9433 28.9681 85.4611C28.9681 87.7314 30.7928 89.7809 33.3066 89.7809C33.3477 89.7809 33.4504 89.8088 33.5572 89.9149C33.6246 89.9819 33.6598 90.0462 33.6766 90.0937C33.6076 90.2911 33.5025 90.4534 33.3906 90.5647C33.2519 90.7028 33.1487 90.7223 33.1172 90.7223C30.3179 90.7223 28.0132 88.4236 28.0132 85.6504C28.0132 84.3325 28.5092 83.0259 29.4919 82.0496Z" fill="#406DA2" stroke="#406DA2" stroke-width="1.5"/>
<path d="M80.3262 107.25C80.2859 107.25 80.1831 107.222 80.0759 107.116C79.9684 107.009 79.9428 106.909 79.9428 106.874V99.5487C79.9428 94.8111 76.0149 90.9091 71.2624 90.9091H25.7527C20.999 90.9091 17.0711 94.811 17.0711 99.5487V106.874C17.0711 106.91 17.0454 107.01 16.9383 107.116C16.8315 107.222 16.7288 107.25 16.6876 107.25C16.6465 107.25 16.5438 107.222 16.437 107.116C16.3299 107.01 16.3042 106.91 16.3042 106.874V99.5487C16.3042 94.3316 20.6852 89.9678 25.9408 89.9678H71.4505C76.706 89.9678 81.0871 94.3316 81.0871 99.5487V106.633C80.9577 106.803 80.8175 106.954 80.6789 107.066C80.4833 107.225 80.3648 107.25 80.3262 107.25Z" fill="#406DA2" stroke="#406DA2" stroke-width="1.5"/>
<path d="M39.7206 73.4411V72.9205L39.2328 72.7384C30.4089 69.4462 23.9894 61.958 22.3367 52.8388C22.1493 51.7161 21.9704 50.4567 21.9704 49.3975V49.3711L21.9685 49.3447L18.5713 1.28904C18.5714 1.20469 18.572 1.15864 18.575 1.12059C18.5768 1.09697 18.5789 1.08671 18.5796 1.08395C18.5855 1.07161 18.6156 1.01983 18.7263 0.909243C18.7437 0.89241 18.8017 0.847603 18.8952 0.80764C18.987 0.768394 19.0754 0.75 19.1441 0.75H78.2489C78.2911 0.75 78.3179 0.754889 78.3869 0.789275C78.4318 0.811668 78.4788 0.838676 78.5576 0.883937L78.5664 0.888946C78.6087 0.913239 78.6573 0.941042 78.7114 0.970594C78.7276 0.996426 78.746 1.02997 78.7637 1.07097C78.7986 1.15231 78.8168 1.23144 78.8199 1.29574L75.4244 49.3447L75.4225 49.3711V49.3975C75.4225 50.4544 75.2444 51.7107 75.0574 52.8316C73.2174 61.9623 66.7882 69.4494 58.1551 72.7403L57.6723 72.9244V73.4411V80.6407C57.4727 80.8352 57.2949 80.9995 57.1235 81.1274C56.8836 81.3062 56.7621 81.3305 56.7221 81.3305H40.1041C40.0629 81.3305 39.9602 81.3027 39.8534 81.1966C39.7464 81.0902 39.7206 80.9904 39.7206 80.9545V73.4411ZM40.6771 79.8459L40.6965 80.576H41.4268H55.5887H56.3387V79.826V72.6888C56.3387 72.5212 56.439 72.3662 56.6381 72.2556C65.3667 69.3384 71.9518 61.8074 73.6992 52.7331L73.701 52.7239L73.7025 52.7148L73.713 52.6522C73.8947 51.5647 74.0885 50.4048 74.0914 49.2368L77.2994 2.30566L77.3542 1.50451H76.5512H20.2775H19.4745L19.5292 2.30566L22.7373 49.2368C22.7401 50.4117 22.935 51.5781 23.1178 52.6721L23.1249 52.7148L23.1264 52.7239L23.1282 52.7331C24.8795 61.8272 31.4895 69.3714 40.2467 72.2747L40.2479 72.2751C40.4021 72.3259 40.4315 72.3739 40.437 72.3828L40.4374 72.3835C40.4513 72.4056 40.4875 72.4816 40.4875 72.6888V72.6988L40.4878 72.7087L40.6771 79.8459Z" fill="#406DA2" stroke="#406DA2" stroke-width="1.5"/>
<path d="M94.6235 25.8096L94.6235 25.8096L94.6258 25.8033C95.4566 23.5314 95.2572 20.8281 93.7788 18.7268C92.3242 16.6593 90.0243 15.404 87.5007 15.404H76.9248C76.8857 15.404 76.7835 15.3768 76.6762 15.2698C76.5686 15.1625 76.5426 15.0617 76.5426 15.0255C76.5426 14.9891 76.5684 14.8892 76.6751 14.783C76.7815 14.6772 76.8838 14.6495 76.9248 14.6495H87.5007C90.274 14.6495 92.8783 16.0302 94.4367 18.2712L94.437 18.2716C95.9906 20.5025 96.3472 23.4407 95.4789 26.0447L87.3666 47.6327L87.3653 47.6361C86.1518 50.913 83.0328 53.1565 79.3822 53.1565H74.0936C74.0535 53.1565 73.9511 53.129 73.8442 53.0228C73.7372 52.9163 73.7114 52.8164 73.7114 52.7805C73.7114 52.7426 73.7379 52.642 73.8446 52.5357C73.9513 52.4295 74.0536 52.402 74.0936 52.402H79.3822C82.5298 52.402 85.4544 50.3269 86.5057 47.4043L94.6235 25.8096Z" fill="#406DA2" stroke="#406DA2" stroke-width="1.5"/>
<path d="M36.4787 23.5102L36.4804 23.512C37.1836 24.2151 37.4549 24.9677 37.4549 25.7338V44.7029C37.4549 46.4356 35.9825 47.8967 34.2499 47.8967C33.8202 47.8967 33.379 47.7596 33.0167 47.593C32.6506 47.4247 32.288 47.1909 32.0224 46.9264L36.4787 23.5102ZM36.4787 23.5102C36.1693 23.2029 35.7571 23.0151 35.3903 22.903C35.0128 22.7875 34.6082 22.7293 34.2499 22.7293C32.5174 22.7293 31.0462 24.1904 31.0462 25.9206M36.4787 23.5102L31.0462 25.9206M31.0462 25.9206V44.7029M31.0462 25.9206V44.7029M31.0462 44.7029C31.0462 45.4699 31.3152 46.2237 32.022 46.926L31.0462 44.7029ZM34.2499 48.4606C33.1673 48.4606 32.2062 48.0075 31.351 47.3347C30.5939 46.5668 30.2793 45.6539 30.2793 44.5148V25.7325C30.2793 23.52 32.0172 21.7867 34.2499 21.7867C35.3327 21.7867 36.295 22.2401 37.1487 22.9125C37.9059 23.6804 38.2205 24.5933 38.2205 25.7325V44.5148C38.2205 46.7275 36.4837 48.4606 34.2499 48.4606Z" fill="#406DA2" stroke="#406DA2" stroke-width="1.5"/>
<path d="M48.413 66.117C47.3311 66.117 46.3688 65.6619 45.5138 64.9907C44.757 64.223 44.4424 63.3079 44.4424 62.1711V43.3889C44.4424 43.351 44.4688 43.2504 44.5756 43.1442C44.6822 43.0382 44.7847 43.0104 44.8258 43.0104C44.8669 43.0104 44.9695 43.0382 45.0761 43.1442C45.1828 43.2504 45.2093 43.351 45.2093 43.3889V62.1711C45.2093 62.9369 45.4804 63.6901 46.1846 64.3913C46.4503 64.6562 46.8133 64.8904 47.18 65.0589C47.5427 65.2255 47.9841 65.3625 48.4142 65.3625C50.1463 65.3625 51.6192 63.9018 51.6192 62.1711V43.3889C51.6192 43.351 51.6456 43.2504 51.7524 43.1442C51.859 43.0382 51.9615 43.0104 52.0026 43.0104C52.0429 43.0104 52.1456 43.038 52.2526 43.1444C52.3598 43.251 52.3861 43.3515 52.3861 43.3889V62.1707C52.3851 64.3824 50.6469 66.117 48.413 66.117Z" fill="#406DA2" stroke="#406DA2" stroke-width="1.5"/>
<path d="M58.9891 27.424H37.8385C37.7973 27.424 37.6946 27.3961 37.5879 27.2901C37.4808 27.1837 37.4551 27.0838 37.4551 27.048C37.4551 27.0118 37.4811 26.9111 37.5886 26.8039C37.6959 26.697 37.7984 26.6695 37.8385 26.6695H59.1772C59.2181 26.6695 59.3206 26.6972 59.4273 26.8037C59.5345 26.9105 59.5606 27.0113 59.5606 27.048C59.5606 27.078 59.5409 27.1668 59.4332 27.2633C59.3318 27.354 59.1785 27.424 58.9891 27.424Z" fill="#406DA2" stroke="#406DA2" stroke-width="1.5"/>
<path d="M58.9891 43.7661H37.8385C37.7973 43.7661 37.6946 43.7382 37.5879 43.6322C37.4808 43.5258 37.4551 43.4259 37.4551 43.3901C37.4551 43.3522 37.4815 43.2517 37.5883 43.1455C37.6949 43.0394 37.7974 43.0116 37.8385 43.0116H59.1772C59.2191 43.0116 59.3216 43.0396 59.4277 43.1453C59.534 43.2511 59.5606 43.3517 59.5606 43.3901C59.5606 43.4201 59.5409 43.509 59.4332 43.6054C59.3318 43.6961 59.1785 43.7661 58.9891 43.7661Z" fill="#406DA2" stroke="#406DA2" stroke-width="1.5"/>
<path d="M66.5452 44.5148V44.5151C66.5463 46.7275 64.8097 48.4606 62.5759 48.4606C61.4929 48.4606 60.5294 48.0071 59.6758 47.3348C58.9186 46.5669 58.604 45.654 58.604 44.5148V25.7325C58.604 23.5201 60.3418 21.7867 62.5759 21.7867C63.6597 21.7867 64.6195 22.2398 65.4734 22.9125C66.2306 23.6804 66.5452 24.5933 66.5452 25.7325V44.5148ZM62.5759 22.7293C60.8443 22.7293 59.3697 24.1894 59.3697 25.9206V44.7029C59.3697 45.471 59.6408 46.2247 60.3471 46.9264L60.8757 46.3944L60.3462 46.9256C60.8061 47.3839 61.552 47.8967 62.5759 47.8967C64.3104 47.8967 65.7796 46.4349 65.7796 44.7029V25.7338C65.7796 24.9685 65.51 24.2153 64.8033 23.5114C64.4947 23.203 64.0823 23.0151 63.7161 22.903C63.3388 22.7875 62.9342 22.7293 62.5759 22.7293Z" fill="#406DA2" stroke="#406DA2" stroke-width="1.5"/>
<path d="M9.46075 47.6349L9.45864 47.6294L1.33893 26.2189L1.33628 26.2119L1.33348 26.205C0.295494 23.6247 0.644103 20.7139 2.36423 18.4914L2.37597 18.4762L2.38693 18.4604C3.94659 16.2169 6.55086 14.8363 9.3241 14.8363H20.0881C20.1283 14.8363 20.231 14.8639 20.3381 14.9704C20.4452 15.0769 20.4715 15.1774 20.4715 15.2148C20.4715 15.2506 20.4458 15.3505 20.3387 15.4569C20.232 15.5629 20.1293 15.5908 20.0881 15.5908H9.3241C6.80183 15.5908 4.50059 16.8461 3.04596 18.9136C1.56482 21.0188 1.37485 23.5299 2.19347 25.971L2.19777 25.9838L2.20252 25.9965L10.3203 47.5912C11.3727 50.516 14.2972 52.5913 17.4438 52.5913H22.7311C22.7723 52.5913 22.875 52.6192 22.9818 52.7253C23.0776 52.8205 23.1083 52.9104 23.1137 52.954C23.1126 52.9572 23.1109 52.9614 23.1086 52.9666C23.0986 52.989 23.0804 53.018 23.0519 53.0464C23.0028 53.0952 22.9095 53.1565 22.7311 53.1565H17.4438C13.9749 53.1565 10.6712 50.9047 9.46075 47.6349Z" fill="#406DA2" stroke="#406DA2" stroke-width="1.5"/>
<path d="M68.4304 12.0222H28.3961C28.355 12.0222 28.2522 11.9944 28.1455 11.8883C28.0384 11.7819 28.0127 11.6821 28.0127 11.6462C28.0127 11.6104 28.0384 11.5105 28.1455 11.4042C28.2522 11.2981 28.355 11.2702 28.3961 11.2702H68.6185C68.6588 11.2702 68.7616 11.2979 68.8689 11.4043C68.9764 11.511 69.0019 11.6109 69.0019 11.6462C69.0019 11.6757 68.9824 11.7646 68.8742 11.8614C68.7725 11.9524 68.619 12.0222 68.4304 12.0222Z" fill="#406DA2" stroke="#406DA2" stroke-width="1.5"/>
<path d="M87.3128 107.25H9.51235C9.47203 107.25 9.36921 107.222 9.26196 107.116C9.15448 107.009 9.12891 106.909 9.12891 106.874C9.12891 106.838 9.15493 106.737 9.26247 106.63C9.36973 106.523 9.47226 106.495 9.51235 106.495H87.5033C87.5424 106.495 87.6446 106.523 87.752 106.63C87.8595 106.737 87.8856 106.838 87.8856 106.874C87.8856 106.903 87.8661 106.992 87.7579 107.089C87.6561 107.18 87.5023 107.25 87.3128 107.25Z" fill="#406DA2" stroke="#406DA2" stroke-width="1.5"/>
</svg>
