<svg width="111" height="82" viewBox="0 0 111 82" fill="none" xmlns="http://www.w3.org/2000/svg">
<g id="Group">
<g id="Group_2">
<g id="Group_3">
<g id="_x38_27_x2C__Balance_x2C__Justice_x2C__Law_x2C__Lawyer_x2C__Scale">
<g id="Group_4">
<path id="Vector" d="M110.207 34.9707H110.207L110.208 34.9804C110.397 44.6832 102.354 52.5336 92.8015 52.5336C83.0661 52.5336 75.2031 44.6865 75.2031 34.9707C75.2031 34.8459 75.2709 34.6786 75.4177 34.5324C75.5644 34.3863 75.7329 34.318 75.8596 34.318H109.553C109.68 34.318 109.847 34.3861 109.993 34.5322C110.14 34.6785 110.207 34.8459 110.207 34.9707ZM77.2086 35.6246H76.6716L76.7099 36.1603C77.3063 44.4929 84.2636 51.0357 92.8028 51.0357C101.343 51.0357 108.302 44.4916 108.897 36.1603L108.935 35.6246H108.398H77.2086Z" fill="#406DA2" stroke="#406DA2"/>
<path id="Vector_2" d="M92.1182 8.43431L92.1183 8.43437L92.1226 8.42163C92.1679 8.28665 92.2982 8.13687 92.4979 8.03727C92.6977 7.93766 92.8963 7.92351 93.0317 7.96836L93.032 7.96846C93.1668 8.01299 93.3165 8.14239 93.4161 8.34135C93.5145 8.53799 93.5292 8.73305 93.4864 8.86686L83.8755 35.3398C83.8439 35.3883 83.7679 35.4591 83.6234 35.5232C83.468 35.5923 83.2962 35.6246 83.177 35.6246H83.1759H83.1747H83.1736H83.1725H83.1714H83.1703H83.1691H83.168H83.1669H83.1658H83.1648H83.1637H83.1626H83.1615H83.1604H83.1594H83.1583H83.1572H83.1562H83.1551H83.1541H83.153H83.152H83.151H83.1499H83.1489H83.1479H83.1469H83.1458H83.1448H83.1438H83.1428H83.1418H83.1408H83.1398H83.1388H83.1379H83.1369H83.1359H83.1349H83.134H83.133H83.132H83.1311H83.1301H83.1292H83.1282H83.1273H83.1263H83.1254H83.1245H83.1235H83.1226H83.1217H83.1208H83.1198H83.1189H83.118H83.1171H83.1162H83.1153H83.1144H83.1135H83.1126H83.1118H83.1109H83.11H83.1091H83.1082H83.1074H83.1065H83.1057H83.1048H83.1039H83.1031H83.1022H83.1014H83.1005H83.0997H83.0989H83.098H83.0972H83.0964H83.0955H83.0947H83.0939H83.0931H83.0923H83.0915H83.0907H83.0899H83.0891H83.0883H83.0875H83.0867H83.0859H83.0851H83.0843H83.0835H83.0827H83.082H83.0812H83.0804H83.0796H83.0789H83.0781H83.0774H83.0766H83.0758H83.0751H83.0743H83.0736H83.0728H83.0721H83.0714H83.0706H83.0699H83.0692H83.0684H83.0677H83.067H83.0662H83.0655H83.0648H83.0641H83.0634H83.0627H83.062H83.0612H83.0605H83.0598H83.0591H83.0584H83.0577H83.057H83.0564H83.0557H83.055H83.0543H83.0536H83.0529H83.0522H83.0516H83.0509H83.0502H83.0495H83.0489H83.0482H83.0475H83.0469H83.0462H83.0455H83.0449H83.0442H83.0436H83.0429H83.0423H83.0416H83.041H83.0403H83.0397H83.039H83.0384H83.0377H83.0371H83.0365H83.0358H83.0352H83.0346H83.0339H83.0333H83.0327H83.0321H83.0314H83.0308H83.0302H83.0296H83.0289H83.0283H83.0277H83.0271H83.0265H83.0259H83.0253H83.0246H83.024H83.0234H83.0228H83.0222H83.0216H83.021H83.0204H83.0198H83.0192H83.0186H83.018H83.0174H83.0168H83.0162H83.0156H83.015H83.0145H83.0139H83.0133H83.0127H83.0121H83.0115H83.0109H83.0103H83.0098H83.0092H83.0086H83.008H83.0074H83.0068H83.0063H83.0057H83.0051H83.0045H83.004H83.0034H83.0028H83.0022H83.0017H83.0011H83.0005H82.9999H82.9994H82.9988H82.9982H82.9977H82.9971H82.9965H82.9959H82.9954H82.9948H82.9942H82.9937H82.9931H82.9925H82.992H82.9914H82.9908H82.9903H82.9897H82.9891H82.9886H82.988H82.9874H82.9869H82.9863H82.9858H82.9852H82.9846H82.9841H82.9835H82.9829H82.9824H82.9818H82.9812H82.9807H82.9801H82.9795H82.979H82.9784H82.9779H82.9773H82.9767H82.9762H82.9756H82.975H82.9745H82.9739H82.9733H82.9728H82.9722H82.9716H82.9711H82.9705H82.9699H82.9694H82.9688H82.9682H82.9677H82.9671H82.9665H82.9659H82.9654H82.9648H82.9642H82.9637H82.9631H82.9625H82.9619H82.9614H82.9608H82.9602H82.9596H82.959H82.9585H82.9579H82.9573H82.9567H82.9561H82.9556H82.955H82.9544H82.9538H82.9532H82.9526H82.952H82.9515H82.9509H82.9503H82.9497H82.9491H82.9485H82.9479H82.9473H82.9467H82.9461H82.9455H82.9449H82.9443H82.9437H82.9431H82.9425H82.9419H82.9413H82.9407H82.9401H82.9395H82.9388H82.9382H82.9376H82.937H82.9364H82.9358H82.9351H82.9345H82.9339H82.9333H82.9326H82.932H82.9314H82.9308H82.9301H82.9295H82.9289H82.9282H82.9276H82.9269H82.9263H82.9257H82.925H82.9244H82.9237H82.9231H82.9224H82.9218H82.9211H82.9205H82.9198H82.9191H82.9185H82.9178H82.9171H82.9165H82.9158H82.9151H82.9145H82.9138H82.9131H82.9124H82.9117H82.9111H82.9104H82.9097H82.909H82.9083H82.9076H82.9069H82.9062H82.9055H82.9048H82.9041H82.9034H82.9027H82.902H82.9013H82.9006H82.8998H82.8991H82.8984H82.8977H82.8969H82.8962H82.8955H82.8947H82.894H82.8933H82.8925H82.8918H82.891H82.8903H82.8895H82.889C82.7714 35.5651 82.65 35.4456 82.565 35.2761C82.4666 35.0797 82.4517 34.8849 82.4943 34.7505L92.1182 8.43431Z" fill="#406DA2" stroke="#406DA2"/>
<path id="Vector_3" d="M102.399 35.6239C102.1 35.6112 101.872 35.4163 101.735 35.1559L92.1216 8.67433C92.0619 8.48974 92.0667 8.28162 92.135 8.11801C92.1971 7.96913 92.3154 7.84247 92.5404 7.78622L92.559 7.78156L92.5773 7.77549C92.7635 7.71342 92.9752 7.71745 93.1416 7.78669C93.2917 7.84914 93.4184 7.96778 93.4744 8.19149L93.4808 8.21703L93.4898 8.24175L103.114 34.5594C103.173 34.7438 103.168 34.9516 103.1 35.115C103.038 35.2637 102.92 35.3906 102.694 35.4469L102.558 35.4807L102.46 35.5797C102.432 35.6077 102.41 35.6193 102.399 35.6239Z" fill="#406DA2" stroke="#406DA2"/>
<path id="Vector_4" d="M35.5043 34.9707H35.5042L35.5044 34.9803C35.6914 44.6868 27.837 52.5336 18.0997 52.5336C8.36295 52.5336 0.5 44.6864 0.5 34.9707C0.5 34.8459 0.567779 34.6786 0.714547 34.5324C0.861238 34.3863 1.0298 34.318 1.15649 34.318H34.8503C34.9765 34.318 35.1442 34.3861 35.2904 34.5322C35.4366 34.6785 35.5043 34.8459 35.5043 34.9707ZM2.50297 35.6246H1.96591L2.00425 36.1603C2.60065 44.4929 9.55795 51.0357 18.0984 51.0357C26.639 51.0357 33.5949 44.4915 34.1913 36.1603L34.2297 35.6246H33.6926H2.50297Z" fill="#406DA2" stroke="#406DA2"/>
<path id="Vector_5" d="M17.8352 7.97908L17.8543 7.97434L17.8729 7.96812C18.0592 7.90603 18.2709 7.9101 18.437 7.97928C18.5868 8.04163 18.7131 8.15998 18.7686 8.38336L18.7751 8.40929L18.7843 8.43438L28.4081 34.7506C28.4678 34.9359 28.4629 35.1442 28.3946 35.3078C28.3375 35.4447 28.2329 35.5628 28.0416 35.6247H28.0409H28.0402H28.0395H28.0388H28.0381H28.0374H28.0367H28.036H28.0353H28.0346H28.0339H28.0332H28.0325H28.0318H28.0311H28.0304H28.0296H28.0289H28.0282H28.0275H28.0267H28.026H28.0252H28.0245H28.0238H28.023H28.0223H28.0215H28.0208H28.02H28.0193H28.0185H28.0177H28.017H28.0162H28.0154H28.0146H28.0139H28.0131H28.0123H28.0115H28.0107H28.01H28.0092H28.0084H28.0076H28.0068H28.006H28.0052H28.0044H28.0036H28.0028H28.0019H28.0011H28.0003H27.9995H27.9987H27.9979H27.997H27.9962H27.9954H27.9945H27.9937H27.9929H27.992H27.9912H27.9903H27.9895H27.9887H27.9878H27.9869H27.9861H27.9852H27.9844H27.9835H27.9827H27.9818H27.9809H27.9801H27.9792H27.9783H27.9774H27.9766H27.9757H27.9748H27.9739H27.973H27.9721H27.9713H27.9704H27.9695H27.9686H27.9677H27.9668H27.9659H27.965H27.9641H27.9632H27.9623H27.9613H27.9604H27.9595H27.9586H27.9577H27.9568H27.9558H27.9549H27.954H27.9531H27.9521H27.9512H27.9503H27.9493H27.9484H27.9475H27.9465H27.9456H27.9446H27.9437H27.9427H27.9418H27.9408H27.9399H27.9389H27.938H27.937H27.9361H27.9351H27.9341H27.9332H27.9322H27.9312H27.9303H27.9293H27.9283H27.9274H27.9264H27.9254H27.9244H27.9234H27.9225H27.9215H27.9205H27.9195H27.9185H27.9175H27.9165H27.9155H27.9146H27.9136H27.9126H27.9116H27.9106H27.9096H27.9086H27.9076H27.9065H27.9055H27.9045H27.9035H27.9025H27.9015H27.9005H27.8995H27.8985H27.8974H27.8964H27.8954H27.8944H27.8934H27.8923H27.8913H27.8903H27.8892H27.8882H27.8872H27.8862H27.8851H27.8841H27.8831H27.882H27.881H27.8799H27.8789H27.8779H27.8768H27.8758H27.8747H27.8737H27.8726H27.8716H27.8705H27.8695H27.8684H27.8674H27.8663H27.8653H27.8642H27.8632H27.8621H27.861H27.86H27.8589H27.8579H27.8568H27.8557H27.8547H27.8536H27.8525H27.8515H27.8504H27.8493H27.8482H27.8472H27.8461H27.845H27.844H27.8429H27.8418H27.8407H27.8396H27.8386H27.8375H27.8364H27.8353H27.8342H27.8332H27.8321H27.831H27.8299H27.8288H27.8277H27.8266H27.8256H27.8245H27.8234H27.8223H27.8212H27.8201H27.819H27.8179H27.8168H27.8157H27.8146H27.8135H27.8124H27.8113H27.8102H27.8091H27.808H27.8069H27.8058H27.8047H27.8036H27.8025H27.8014H27.8003H27.7992H27.7981H27.797H27.7959H27.7948H27.7937H27.7926H27.7915H27.7904H27.7893H27.7882H27.787H27.7859H27.7848H27.7837H27.7826H27.7815H27.7804H27.7793H27.7782H27.777H27.7759H27.7748H27.7737H27.7726H27.7715H27.7704H27.7692H27.7681H27.767H27.7659H27.7648H27.7637H27.7625H27.7614H27.7603H27.7592H27.7581H27.757H27.7558H27.7547H27.7536H27.7525H27.7514H27.7502H27.7491H27.748H27.7469H27.7458H27.7446H27.7435H27.7424H27.7413H27.7402H27.739H27.7379H27.7368H27.7357H27.7346H27.7334H27.7323H27.7312H27.7301H27.729H27.7278H27.7267C27.411 35.6247 27.1722 35.4251 27.0291 35.1549L17.4159 8.86647C17.3563 8.68203 17.3612 8.47387 17.4295 8.31029C17.4917 8.16143 17.61 8.03492 17.8352 7.97908Z" fill="#406DA2" stroke="#406DA2"/>
<path id="Vector_6" d="M18.4846 7.4937L18.3274 7.96836C18.4613 8.01268 18.6105 8.14175 18.71 8.34096C18.8082 8.53759 18.8231 8.73303 18.7806 8.8674L9.16812 35.3448C9.08507 35.4935 8.91404 35.6246 8.47141 35.6246H8.47028H8.46915H8.46803H8.46691H8.46579H8.46468H8.46357H8.46247H8.46137H8.46028H8.45919H8.4581H8.45702H8.45594H8.45487H8.4538H8.45274H8.45168H8.45062H8.44957H8.44852H8.44747H8.44643H8.4454H8.44437H8.44334H8.44231H8.44129H8.44028H8.43927H8.43826H8.43725H8.43625H8.43526H8.43426H8.43327H8.43229H8.43131H8.43033H8.42936H8.42839H8.42742H8.42646H8.4255H8.42454H8.42359H8.42264H8.4217H8.42076H8.41982H8.41889H8.41796H8.41703H8.41611H8.41519H8.41427H8.41336H8.41245H8.41155H8.41064H8.40975H8.40885H8.40796H8.40707H8.40618H8.4053H8.40442H8.40355H8.40268H8.40181H8.40094H8.40008H8.39922H8.39836H8.39751H8.39666H8.39582H8.39497H8.39413H8.39329H8.39246H8.39163H8.3908H8.38998H8.38915H8.38833H8.38752H8.3867H8.38589H8.38509H8.38428H8.38348H8.38268H8.38189H8.38109H8.3803H8.37951H8.37873H8.37795H8.37717H8.37639H8.37562H8.37485H8.37408H8.37331H8.37255H8.37179H8.37103H8.37027H8.36952H8.36877H8.36802H8.36728H8.36653H8.36579H8.36505H8.36432H8.36359H8.36285H8.36213H8.3614H8.36068H8.35996H8.35924H8.35852H8.35781H8.35709H8.35638H8.35568H8.35497H8.35427H8.35357H8.35287H8.35217H8.35148H8.35078H8.35009H8.3494H8.34872H8.34803H8.34735H8.34667H8.34599H8.34532H8.34464H8.34397H8.3433H8.34263H8.34196H8.3413H8.34064H8.33998H8.33932H8.33866H8.338H8.33735H8.3367H8.33605H8.3354H8.33475H8.33411H8.33346H8.33282H8.33218H8.33154H8.3309H8.33027H8.32963H8.329H8.32837H8.32774H8.32711H8.32649H8.32586H8.32524H8.32462H8.32399H8.32338H8.32276H8.32214H8.32153H8.32091H8.3203H8.31969H8.31908H8.31847H8.31786H8.31725H8.31665H8.31605H8.31544H8.31484H8.31424H8.31364H8.31304H8.31244H8.31185H8.31125H8.31066H8.31007H8.30947H8.30888H8.30829H8.3077H8.30711H8.30653H8.30594H8.30535H8.30477H8.30419H8.3036H8.30302H8.30244H8.30186H8.30128H8.3007H8.30012H8.29954H8.29896H8.29839H8.29781H8.29724H8.29666H8.29609H8.29551H8.29494H8.29437H8.2938H8.29323H8.29265H8.29208H8.29151H8.29095H8.29038H8.28981H8.28924H8.28867H8.2881H8.28754H8.28697H8.2864H8.28584H8.28527H8.2847H8.28414H8.28357H8.28301H8.28244H8.28188H8.28131H8.28075H8.28019H8.27962H8.27906H8.27849H8.27793H8.27737H8.2768H8.27624H8.27567H8.27511H8.27454H8.27398H8.27342H8.27285H8.27229H8.27172H8.27116H8.27059H8.27003H8.26946H8.2689H8.26833H8.26776H8.2672H8.26663H8.26606H8.2655H8.26493H8.26436H8.26379H8.26322H8.26265H8.26208H8.26151H8.26094H8.26037H8.2598H8.25923H8.25866H8.25808H8.25751H8.25693H8.25636H8.25578H8.25521H8.25463H8.25405H8.25347H8.25289H8.25231H8.25173H8.25115H8.25057H8.24999H8.2494H8.24882H8.24823H8.24765H8.24706H8.24647H8.24588H8.24529H8.2447H8.24411H8.24352H8.24292H8.24233H8.24173H8.24114H8.24054H8.23994H8.23934H8.23874H8.23814H8.23753H8.23693H8.23632H8.23571H8.23511H8.2345H8.23388H8.23327H8.23266H8.23204H8.23143H8.23081H8.23019H8.22957H8.22895H8.22833H8.2277H8.22708H8.22645H8.22582H8.22519H8.22456H8.22392H8.22329H8.22265H8.22201H8.22137H8.22073H8.22009H8.21945H8.2188H8.21815H8.2175H8.21685H8.2162H8.21554H8.21488H8.21423H8.21357H8.2129H8.21224H8.21157H8.21091H8.21024H8.20956H8.20889H8.20821H8.20754H8.20686H8.20618H8.20549H8.20481H8.20412H8.20343H8.20274H8.20204H8.20135H8.20065H8.19995H8.19925H8.19854H8.19784H8.19713H8.19642H8.1957H8.19499H8.19427H8.19355H8.19282H8.1921H8.19137H8.19064H8.18991H8.18918H8.18844H8.1877H8.18696H8.18621H8.18546H8.18472H8.18396H8.18344C8.06586 35.5651 7.94443 35.4456 7.85948 35.2761C7.76105 35.0797 7.74609 34.8849 7.78875 34.7505L17.4126 8.43431L17.4128 8.43437L17.417 8.42163C17.4623 8.28668 17.5926 8.13692 17.7924 8.03732C17.9922 7.93775 18.1913 7.9234 18.3277 7.96846L18.4846 7.4937ZM18.4846 7.4937C17.9057 7.30243 17.1368 7.68497 16.943 8.26258L19.2534 9.0302C19.4447 8.45385 19.0622 7.68497 18.4846 7.4937Z" fill="#406DA2" stroke="#406DA2"/>
<path id="Vector_7" d="M92.3957 9.2551C92.3885 9.25215 92.3839 9.24982 92.3814 9.24842L92.3513 9.21811L92.309 9.19004C92.0553 9.02143 91.9604 8.61602 92.2416 8.17826L96.6484 3.01497L97.3522 2.19038H96.2681H60.2638C60.1377 2.19038 59.97 2.1223 59.8238 1.97614C59.6775 1.82986 59.6099 1.66243 59.6099 1.53769C59.6099 1.41171 59.6778 1.24444 59.8239 1.09869C59.97 0.952904 60.1378 0.88501 60.2638 0.88501H98.7711C99.046 0.88501 99.3571 1.02438 99.4533 1.31231L99.4643 1.34523L99.4798 1.37631C99.5991 1.61651 99.5793 1.94765 99.3816 2.14672L99.3645 2.1639L99.3492 2.18265L93.592 9.22511C93.4512 9.20537 93.3223 9.21388 93.2025 9.23365C93.1088 9.24912 93.0485 9.26264 93.0009 9.27331C92.929 9.28941 92.8861 9.29902 92.8012 9.29902C92.7027 9.29902 92.5972 9.29813 92.4989 9.28176C92.4515 9.27385 92.4176 9.26405 92.3957 9.2551Z" fill="#406DA2" stroke="#406DA2"/>
<path id="Vector_8" d="M93.2665 8.64646V8.72726L93.292 8.80395C93.3178 8.88173 93.3048 8.98816 93.1997 9.10603C93.0903 9.22856 92.9321 9.29914 92.8013 9.29914H60.4552C60.3288 9.29914 60.161 9.23109 60.0151 9.08525C59.8691 8.93935 59.8013 8.77199 59.8013 8.64646C59.8013 8.52126 59.8691 8.35392 60.0154 8.2078C60.1617 8.06169 60.3295 7.99377 60.4552 7.99377H92.61C92.7367 7.99377 92.9053 8.06203 93.052 8.20819C93.1987 8.35442 93.2665 8.52165 93.2665 8.64646Z" fill="#406DA2" stroke="#406DA2"/>
<path id="Vector_9" d="M11.5555 1.79641L11.5394 1.77668L11.5214 1.7587C11.3951 1.63282 11.3617 1.54157 11.3522 1.45689C11.3408 1.35452 11.3588 1.20705 11.4371 0.963141C11.5818 0.69482 11.8182 0.5 12.1311 0.5H50.637C50.7634 0.5 50.932 0.568282 51.0789 0.71476C51.2259 0.861367 51.2935 1.02867 51.2935 1.15268C51.2935 1.27828 51.2256 1.44544 51.0791 1.5913C50.9326 1.73713 50.7641 1.80537 50.637 1.80537H14.6328H13.5583L14.2502 2.62736L18.2935 7.43063L18.4433 7.60864H18.676H50.2507C50.3782 7.60864 50.5467 7.67704 50.693 7.82293C50.8394 7.96894 50.9072 8.13619 50.9072 8.26133V8.3109L50.9169 8.35951C51.0595 9.07153 50.6481 9.29908 50.4445 9.29908H18.0997C17.9876 9.29908 17.8621 9.27021 17.7427 9.21918C17.6338 9.17259 17.5516 9.11683 17.5043 9.07456L11.5555 1.79641Z" fill="#406DA2" stroke="#406DA2"/>
<path id="Vector_10" d="M61.9205 66.2933V66.2842L61.9202 66.2751L59.6098 2.67226L59.5923 2.19041H59.1101H51.7937H51.3116L51.2941 2.67226L48.9836 66.2751L48.9833 66.2842V66.2933C48.9833 66.4188 48.9154 66.586 48.7689 66.7319C48.6224 66.8777 48.4538 66.9459 48.3268 66.9459C48.2003 66.9459 48.0326 66.8779 47.8866 66.732C47.7433 66.5888 47.6754 66.4249 47.6729 66.3002L49.983 1.36296L49.9833 1.35408V1.34519C49.9833 1.21999 50.0511 1.05265 50.1974 0.90653C50.3438 0.76042 50.5116 0.692505 50.6372 0.692505H60.2641C60.3904 0.692505 60.559 0.760785 60.7059 0.907262C60.8529 1.05387 60.9205 1.22118 60.9205 1.34519V1.35484L60.9209 1.36449L63.4222 66.1107C63.4181 66.5967 63.0677 66.9459 62.5745 66.9459C62.448 66.9459 62.2803 66.8779 62.1343 66.732C61.9883 66.5861 61.9205 66.4188 61.9205 66.2933Z" fill="#406DA2" stroke="#406DA2"/>
<path id="Vector_11" d="M67.5802 74.0559C67.4538 74.0559 67.2853 73.9877 67.1384 73.8412C66.9913 73.6946 66.9237 73.5273 66.9237 73.4033V69.7514C66.9237 68.1293 65.7364 66.9448 64.1132 66.9448H46.9788C45.3558 66.9448 44.1683 68.1279 44.1683 69.7514V73.402C44.1683 73.5272 44.1005 73.6945 43.9542 73.8407C43.8079 73.9868 43.6401 74.0547 43.5144 74.0547C43.3873 74.0547 43.2188 73.9863 43.0722 73.84C42.9255 73.6937 42.8579 73.5263 42.8579 73.402V69.7514C42.8579 67.5294 44.7521 65.6394 46.9788 65.6394H64.1145C66.3435 65.6394 68.2354 67.5293 68.2354 69.7514V73.402C68.2354 73.5273 68.1675 73.695 68.0209 73.8414C67.8745 73.9878 67.7064 74.0559 67.5802 74.0559Z" fill="#406DA2" stroke="#406DA2"/>
<path id="Vector_12" d="M76.5131 80.7045V80.7868L76.5395 80.8648C76.564 80.9372 76.5557 81.0329 76.4453 81.1431C76.3306 81.2576 76.1242 81.3572 75.8591 81.3572C75.7324 81.3572 75.5639 81.2889 75.4172 81.1428C75.2704 80.9965 75.2027 80.8293 75.2027 80.7045V77.0539C75.2027 75.4329 74.0152 74.2485 72.3922 74.2485H38.5071C36.8843 74.2485 35.6967 75.4314 35.6967 77.0539V80.7045C35.6967 80.8304 35.6288 80.9976 35.4826 81.1432C35.3365 81.2888 35.168 81.3572 35.0402 81.3572C34.9137 81.3572 34.746 81.2891 34.6 81.1433C34.454 80.9974 34.3862 80.83 34.3862 80.7045V77.0539C34.3862 74.8329 36.2782 72.9419 38.5071 72.9419H72.3922C74.6211 72.9419 76.5131 74.8329 76.5131 77.0539V80.7045Z" fill="#406DA2" stroke="#406DA2"/>
<path id="Vector_13" d="M80.1713 80.7043V80.7054C80.1715 80.8301 80.1042 80.9971 79.9581 81.1431C79.812 81.2891 79.6443 81.357 79.5186 81.357H31.382C31.2555 81.357 31.0878 81.289 30.9418 81.1431C30.7958 80.9972 30.728 80.8298 30.728 80.7043C30.728 80.5791 30.7958 80.4118 30.9422 80.2657C31.0885 80.1196 31.2563 80.0516 31.382 80.0516H79.5173C79.6438 80.0516 79.8115 80.1197 79.9575 80.2655C80.1035 80.4114 80.1713 80.5788 80.1713 80.7043Z" fill="#406DA2" stroke="#406DA2"/>
</g>
</g>
</g>
</g>
</g>
</svg>
