<svg width="107" height="129" viewBox="0 0 107 129" fill="none" xmlns="http://www.w3.org/2000/svg">
<g id="Group">
<g id="Group_2">
<g id="Group_3">
<g id="_x38_40_x2C__Online_x2C__Bid_x2C__Mobile_x2C__Phone_x2C__Smartphone">
<g id="Group_4">
<path id="Vector" d="M30.4011 63.6409H26.6533V53.2838H30.4011C31.22 53.2838 32.058 53.4881 32.701 53.7034L32.701 53.7034L32.7032 53.7041C33.2836 53.8955 33.8557 54.2808 34.2339 54.8431L34.2768 54.9069L34.3369 54.9549C35.2963 55.7206 35.7137 56.8855 35.7137 58.3517C35.7137 60.0131 35.1431 61.3256 34.2171 62.223C33.2888 63.1227 31.9664 63.6409 30.4011 63.6409ZM29.0589 54.511H28.5589V55.011V61.6925V62.1925H29.0589H30.6238C30.6343 62.1925 30.6449 62.1925 30.6556 62.1925C31.0853 62.1927 31.6337 62.1929 32.1863 61.9193L32.2149 61.9052L32.2414 61.8875C32.2552 61.8784 32.269 61.8692 32.283 61.8599C32.9258 61.4327 33.7421 60.8902 34.014 59.8108C34.1381 59.321 34.201 58.7685 34.1699 58.239C34.1412 57.7526 34.0308 57.2487 33.7808 56.8312C33.63 56.0815 33.2322 55.4975 32.6722 55.1034C32.0955 54.6975 31.3741 54.511 30.6238 54.511H29.0589Z" fill="#406DA2" stroke="#406DA2"/>
<path id="Vector_2" d="M20.8418 63.4196V53.0626H22.5247V63.4196H20.8418Z" fill="#406DA2" stroke="#406DA2"/>
<path id="Vector_3" d="M16.237 58.9357C16.4198 59.0571 16.5936 59.2233 16.7797 59.4967C16.9677 59.8769 17.1593 60.4621 17.1593 61.247C17.1593 61.7051 17.1519 62.0351 16.9886 62.3597C16.8915 62.5521 16.8084 62.6694 16.7187 62.7588C16.6292 62.8479 16.5116 62.9306 16.3186 63.0258L16.3168 63.0267C15.4841 63.4417 14.6662 63.6424 13.857 63.6424H8.77002V53.0626H14.7522C14.9854 53.0626 15.1097 53.0638 15.2293 53.0835C15.3244 53.0992 15.4297 53.1294 15.5861 53.2021C15.723 53.3226 15.8887 53.4328 16.0179 53.5188C16.0253 53.5238 16.0327 53.5286 16.0399 53.5334C16.1956 53.6372 16.3067 53.7131 16.3792 53.7766C16.761 54.3625 16.9351 54.9216 16.9351 55.4579C16.9351 55.7892 16.7503 56.3745 16.5414 56.7925C16.3751 57.1212 16.0302 57.4751 15.4888 57.6563L14.0632 58.1336L15.4906 58.6052C15.8135 58.7119 16.042 58.8063 16.237 58.9357ZM14.8831 59.333L14.8831 59.333L14.8807 59.3307C14.8752 59.3252 14.8695 59.3196 14.8637 59.3139C14.7615 59.2129 14.6304 59.0834 14.4929 58.9808C14.3524 58.876 14.1329 58.7426 13.8584 58.7426H10.7302H10.2302V59.2426V61.691V62.191H10.7302H13.6357C14.2058 62.191 14.5458 61.9265 14.7772 61.705C14.85 61.6793 14.9229 61.6393 14.9906 61.5796C15.1282 61.4581 15.1846 61.3064 15.2109 61.2013C15.2543 61.0279 15.254 60.804 15.2537 60.6195C15.2537 60.6057 15.2537 60.5922 15.2537 60.5789C15.2537 60.558 15.2538 60.537 15.2538 60.516C15.2549 60.1272 15.2561 59.7061 14.8831 59.333ZM14.6589 54.8787L14.6589 54.8787L14.6566 54.8764C14.2858 54.5104 13.8842 54.5108 13.6502 54.511C13.6448 54.511 13.6395 54.511 13.6343 54.511H10.9529H10.4529V55.011V57.2381V57.7381H10.9529H13.6343C13.6395 57.7381 13.6448 57.7382 13.6502 57.7382C13.8842 57.7384 14.2858 57.7387 14.6566 57.3728L14.804 57.2273L14.8052 57.0341C14.8065 57.0298 14.8086 57.0229 14.8122 57.0129C14.822 56.985 14.831 56.9636 14.8441 56.9322C14.8538 56.909 14.8658 56.8803 14.8821 56.8397C14.9489 56.6729 15.0295 56.4381 15.0295 56.1246C15.0295 56.1037 15.0296 56.0827 15.0296 56.0616C15.0308 55.6728 15.032 55.2517 14.6589 54.8787Z" fill="#406DA2" stroke="#406DA2"/>
<path id="Vector_4" d="M54.99 121.994C51.6994 121.994 49.2319 119.333 49.2319 116.258C49.2319 113.195 51.912 110.522 54.99 110.522C58.2807 110.522 60.7495 113.183 60.7495 116.258C60.7495 119.333 58.2807 121.994 54.99 121.994ZM54.99 112.196C52.7041 112.196 50.9133 113.975 50.9133 116.258C50.9133 118.54 52.7025 120.32 54.99 120.32C57.2759 120.32 59.0666 118.541 59.0666 116.258C59.0666 113.975 57.2759 112.196 54.99 112.196Z" fill="#406DA2" stroke="#406DA2"/>
<path id="Vector_5" d="M59.2379 9.07537H49.4017C49.229 9.07537 49.0144 8.98413 48.8331 8.80363C48.6516 8.62299 48.561 8.41024 48.561 8.24053C48.561 8.07083 48.6516 7.85808 48.8331 7.67744C49.0144 7.49693 49.229 7.4057 49.4017 7.4057H59.2379C59.4106 7.4057 59.6253 7.49693 59.8066 7.67744C59.988 7.85808 60.0786 8.07083 60.0786 8.24053C60.0786 8.41024 59.988 8.62299 59.8066 8.80363C59.6253 8.98413 59.4106 9.07537 59.2379 9.07537Z" fill="#406DA2" stroke="#406DA2"/>
<path id="Vector_6" d="M84.4444 97.3271V97.4087L84.4704 97.4861C84.5101 97.6046 84.4863 97.7462 84.3411 97.8907C84.1917 98.0395 83.9312 98.1619 83.6037 98.1619H26.3773C26.2046 98.1619 25.9899 98.0707 25.8086 97.8902C25.6272 97.7095 25.5366 97.4968 25.5366 97.3271C25.5366 97.1574 25.6272 96.9446 25.8086 96.764C25.9899 96.5835 26.2046 96.4922 26.3773 96.4922H83.6037C83.7764 96.4922 83.9911 96.5835 84.1724 96.764C84.3538 96.9446 84.4444 97.1574 84.4444 97.3271Z" fill="#406DA2" stroke="#406DA2"/>
<path id="Vector_7" d="M75.3326 24.4443H65.4979C65.3252 24.4443 65.1105 24.353 64.9292 24.1725C64.7478 23.9919 64.6572 23.7791 64.6572 23.6094C64.6572 23.4374 64.7482 23.2238 64.9291 23.0434C65.1099 22.863 65.3244 22.7717 65.4979 22.7717H75.3326C75.5072 22.7717 75.722 22.8632 75.9029 23.0435C76.0838 23.2239 76.1748 23.4374 76.1748 23.6094C76.1748 23.7791 76.0842 23.9918 75.9027 24.1724C75.7214 24.3528 75.5063 24.4443 75.3326 24.4443Z" fill="#406DA2" stroke="#406DA2"/>
<path id="Vector_8" d="M75.3326 30.0121H65.4979C65.3252 30.0121 65.1105 29.9209 64.9292 29.7404C64.7478 29.5598 64.6572 29.347 64.6572 29.1773C64.6572 29.0053 64.7482 28.7917 64.9291 28.6113C65.1099 28.4309 65.3244 28.3395 65.4979 28.3395H75.3326C75.5072 28.3395 75.722 28.4311 75.9029 28.6114C76.0838 28.7918 76.1748 29.0053 76.1748 29.1773C76.1748 29.347 76.0842 29.5597 75.9027 29.7403C75.7214 29.9207 75.5063 30.0121 75.3326 30.0121Z" fill="#406DA2" stroke="#406DA2"/>
<path id="Vector_9" d="M75.3326 35.5801H65.4979C65.3252 35.5801 65.1105 35.4888 64.9292 35.3083C64.7478 35.1277 64.6572 34.9149 64.6572 34.7452C64.6572 34.5732 64.7482 34.3597 64.9291 34.1792C65.1099 33.9988 65.3244 33.9075 65.4979 33.9075H75.3326C75.5072 33.9075 75.722 33.999 75.9029 34.1793C76.0838 34.3597 76.1748 34.5732 76.1748 34.7452C76.1748 34.9149 76.0842 35.1276 75.9027 35.3082C75.7214 35.4886 75.5063 35.5801 75.3326 35.5801Z" fill="#406DA2" stroke="#406DA2"/>
<path id="Vector_10" d="M45.3252 23.6094V23.6907L45.3509 23.7679C45.3902 23.8853 45.3665 24.0273 45.2206 24.1727C45.0709 24.3218 44.8106 24.4443 44.4845 24.4443H34.6483C34.4747 24.4443 34.2601 24.3529 34.0792 24.1727C33.8981 23.9922 33.8076 23.7795 33.8076 23.6094C33.8076 23.4374 33.8986 23.2238 34.0795 23.0434C34.2603 22.863 34.4747 22.7717 34.6483 22.7717H44.4845C44.6571 22.7717 44.8717 22.8629 45.0529 23.0435C45.2341 23.2242 45.3252 23.4377 45.3252 23.6094Z" fill="#406DA2" stroke="#406DA2"/>
<path id="Vector_11" d="M45.3252 29.1773V29.2586L45.3509 29.3357C45.3902 29.4532 45.3665 29.5952 45.2206 29.7405C45.0709 29.8897 44.8106 30.0121 44.4845 30.0121H34.6483C34.4747 30.0121 34.2601 29.9208 34.0792 29.7405C33.8981 29.5601 33.8076 29.3473 33.8076 29.1773C33.8076 29.0053 33.8986 28.7917 34.0795 28.6113C34.2603 28.4309 34.4748 28.3395 34.6483 28.3395H44.4845C44.6571 28.3395 44.8717 28.4307 45.0529 28.6114C45.2341 28.7921 45.3252 29.0056 45.3252 29.1773Z" fill="#406DA2" stroke="#406DA2"/>
<path id="Vector_12" d="M45.3252 34.7452V34.8265L45.3509 34.9037C45.3902 35.0211 45.3665 35.1631 45.2206 35.3085C45.0709 35.4576 44.8106 35.5801 44.4845 35.5801H34.6483C34.4747 35.5801 34.2601 35.4887 34.0792 35.3085C33.8981 35.128 33.8076 34.9153 33.8076 34.7452C33.8076 34.5732 33.8986 34.3596 34.0795 34.1792C34.2603 33.9988 34.4748 33.9075 34.6483 33.9075H44.4845C44.6571 33.9075 44.8717 33.9987 45.0529 34.1793C45.2341 34.36 45.3252 34.5735 45.3252 34.7452Z" fill="#406DA2" stroke="#406DA2"/>
<path id="Vector_13" d="M82.7616 16.7037V16.2037H82.2616H27.718H27.218V16.7037V47.4386C27.218 47.6107 27.127 47.8242 26.9461 48.0047C26.7654 48.185 26.5509 48.2764 26.3773 48.2764C26.2046 48.2764 25.9901 48.1852 25.8089 48.0045C25.6277 47.8238 25.5366 47.6103 25.5366 47.4386V15.1447C25.5366 14.9741 25.6273 14.7614 25.8085 14.5812C25.9896 14.401 26.2043 14.3099 26.3773 14.3099H83.6037C83.7764 14.3099 83.9911 14.4011 84.1724 14.5816C84.3538 14.7623 84.4444 14.975 84.4444 15.1447V54.7897V54.8715L84.4705 54.9491C84.5099 55.0664 84.4865 55.2079 84.341 55.3529C84.1914 55.502 83.9308 55.6245 83.6037 55.6245C83.4309 55.6245 83.2158 55.5332 83.0341 55.3526C82.8522 55.1717 82.7616 54.9591 82.7616 54.7897V16.7037Z" fill="#406DA2" stroke="#406DA2"/>
<path id="Vector_14" d="M92.0991 55.6246C91.9244 55.6246 91.7095 55.533 91.5285 55.3528C91.3474 55.1725 91.2569 54.9597 91.2569 54.7897V11.5813C91.2569 6.40375 87.0093 2.1726 81.8175 2.1726H28.1662C22.973 2.1726 18.7239 6.40359 18.7239 11.5813V47.2159C18.7239 47.3868 18.6332 47.5995 18.4524 47.7795C18.2717 47.9594 18.0571 48.0507 17.8832 48.0507C17.7105 48.0507 17.4958 47.9595 17.3145 47.779C17.1331 47.5984 17.0425 47.3856 17.0425 47.2159V11.5813C17.0425 5.39901 21.9598 0.5 28.1677 0.5H81.8189C88.0267 0.5 92.9412 5.40027 92.9412 11.5813L92.9412 54.7875C92.9412 54.788 92.9412 54.7884 92.9412 54.7888C92.94 54.9596 92.8484 55.1726 92.6674 55.3528C92.4859 55.5335 92.2716 55.6246 92.0991 55.6246Z" fill="#406DA2" stroke="#406DA2"/>
<path id="Vector_15" d="M81.816 127.562H28.1662C21.9583 127.562 17.041 122.662 17.041 116.481V69.7103C17.041 69.5397 17.1317 69.327 17.3129 69.1467C17.494 68.9666 17.7087 68.8754 17.8817 68.8754C18.0553 68.8754 18.2699 68.9668 18.4508 69.147C18.6319 69.3275 18.7224 69.5402 18.7224 69.7103V116.481C18.7224 121.658 22.9716 125.889 28.1648 125.889H81.816C87.0079 125.889 91.2554 121.658 91.2554 116.481V78.8416C91.2554 78.6705 91.3463 78.4569 91.5275 78.2761C91.7085 78.0955 91.9234 78.0039 92.0976 78.0039C92.2699 78.0039 92.4845 78.0951 92.6659 78.2761C92.8473 78.4572 92.9383 78.6708 92.9383 78.8416V116.258C92.9383 122.453 88.0114 127.562 81.816 127.562Z" fill="#406DA2" stroke="#406DA2"/>
<path id="Vector_16" d="M27.218 104.23V104.73H27.718H82.2616H82.7616V104.23V87.973C82.7616 87.8028 82.8523 87.5902 83.0339 87.4098C83.2154 87.2294 83.4306 87.1382 83.6037 87.1382C83.7764 87.1382 83.9911 87.2294 84.1724 87.4099C84.3538 87.5906 84.4444 87.8033 84.4444 87.973V105.569V105.631L84.4596 105.691C84.5321 105.979 84.4587 106.196 84.3225 106.347C84.1781 106.507 83.9289 106.628 83.6037 106.628H26.3773C26.205 106.628 25.9904 106.537 25.809 106.356C25.6276 106.175 25.5366 105.961 25.5366 105.79V69.4875C25.5366 69.317 25.6273 69.1043 25.8085 68.924C25.9896 68.7439 26.2043 68.6527 26.3773 68.6527C26.5509 68.6527 26.7655 68.7441 26.9464 68.9243C27.1275 69.1047 27.218 69.3175 27.218 69.4875V104.23Z" fill="#406DA2" stroke="#406DA2"/>
<path id="Vector_17" d="M62.8464 63.3057L62.8653 63.3339L62.8878 63.3592L83.4524 86.5232L83.8263 86.9444L84.2002 86.5233L104.768 63.3593L104.791 63.3334L104.81 63.3046C105.043 62.9554 105.586 62.8613 106.127 63.2219L106.128 63.2229C106.474 63.4523 106.571 63.9747 106.231 64.5067L84.635 88.6823C84.2076 88.8952 83.8914 89.032 83.6036 89.032C83.4769 89.032 83.3861 89.0045 83.2678 88.9457C83.2034 88.9136 83.1373 88.8756 83.0478 88.8242L83.0359 88.8173C82.9665 88.7774 82.8872 88.7321 82.798 88.685L61.4243 64.5079C61.0848 63.9776 61.1802 63.4535 61.5268 63.2224C62.0689 62.8628 62.6122 62.9564 62.8464 63.3057Z" fill="#406DA2" stroke="#406DA2"/>
<path id="Vector_18" d="M73.2542 63.0578L73.2542 63.0578L73.2551 63.0575C73.4868 62.9799 73.767 62.9797 74.0002 63.0573C74.2311 63.134 74.3625 63.2649 74.4114 63.4106L74.4163 63.4252L74.4221 63.4395L82.9146 84.3734L83.3779 85.5152L83.8413 84.3734L92.3367 63.4395L92.3425 63.4252L92.3475 63.4106C92.4083 63.2292 92.574 63.0521 92.7921 62.9616C93.0017 62.8746 93.2128 62.885 93.386 62.9999L93.4419 63.0371L93.5056 63.0581C93.6875 63.1182 93.8647 63.2831 93.9552 63.4995C94.0421 63.7073 94.0316 63.9156 93.9169 64.0865L93.8881 64.1294L93.8687 64.1773L84.034 88.452L83.9647 88.6231L84.0232 88.7982C84.0528 88.887 84.0563 88.9378 84.0557 88.96C84.0397 88.9694 84.0055 88.9855 83.9427 89.0003C83.8589 89.02 83.7462 89.0321 83.6036 89.0321C83.1943 89.0321 82.891 88.7686 82.7168 88.4321L72.8967 64.1934C72.824 63.9647 72.8255 63.6923 72.9012 63.4655C72.9775 63.2371 73.1076 63.1065 73.2542 63.0578ZM73.0964 62.5834C73.766 62.3592 74.6613 62.5834 74.8854 63.2515L73.0964 62.5834Z" fill="#406DA2" stroke="#406DA2"/>
<path id="Vector_19" d="M61.2775 64.207L61.2771 64.206C61.1723 63.8936 61.1441 63.6986 61.1598 63.5573C61.1729 63.4388 61.2213 63.3171 61.3788 63.1602L61.3952 63.1438L61.4101 63.126L68.9953 54.0159C69.1355 53.8844 69.446 53.7307 69.7455 53.7307H97.9118C98.2068 53.7307 98.518 53.8831 98.6631 54.0172L106.246 63.1259L106.261 63.1438L106.277 63.1602C106.434 63.3169 106.483 63.4389 106.496 63.5578C106.511 63.6893 106.487 63.867 106.4 64.1414C106.219 64.3992 106.061 64.5402 105.912 64.6226C105.756 64.7089 105.566 64.7545 105.286 64.7545H62.1438C61.8055 64.7545 61.4036 64.5853 61.2775 64.207ZM64.6582 62.2734L64.0124 63.0848H65.0494H102.381H103.446L102.765 62.2653L97.3997 55.8051L97.2497 55.6246H97.0151H70.1909H69.9498L69.7997 55.8132L64.6582 62.2734Z" fill="#406DA2" stroke="#406DA2"/>
<path id="Vector_20" d="M92.8999 64.4569L92.8934 64.4503L92.8866 64.444L83.0489 55.3112L83.0193 55.2837L82.9857 55.2613C82.7906 55.1316 82.7065 54.9543 82.7065 54.7596C82.7065 54.5538 82.8036 54.2864 83.0619 54.0286L83.0971 53.9935L83.1246 53.9522C83.2545 53.7576 83.4333 53.6724 83.6311 53.6724C83.8397 53.6724 84.109 53.7702 84.367 54.0282L84.3722 54.0334L84.3776 54.0385L92.6474 61.8336L93.1424 62.3001L93.4399 61.6885L97.0166 54.3373L97.031 54.3078L97.0413 54.2767C97.0895 54.1322 97.2197 54.0021 97.4505 53.9256C97.6836 53.8483 97.9643 53.8483 98.197 53.925C98.346 53.9749 98.4763 54.1064 98.5525 54.3337C98.6271 54.5564 98.6298 54.8232 98.5606 55.0497L94.3297 64.1462C94.2624 64.2769 94.1602 64.3796 94.0549 64.4494C94.002 64.4845 93.9534 64.5078 93.9162 64.5213C93.8931 64.5296 93.8797 64.5324 93.8757 64.5332H93.6761L93.5294 64.6808C93.482 64.7285 93.4416 64.7456 93.4224 64.7519C93.4197 64.7528 93.4173 64.7535 93.4152 64.7541C93.2973 64.7507 93.2239 64.7219 93.1646 64.6866C93.0869 64.6402 93.0173 64.5743 92.8999 64.4569Z" fill="#406DA2" stroke="#406DA2"/>
<path id="Vector_21" d="M73.4737 64.6198C73.4278 64.5816 73.3949 64.545 73.3752 64.5181V64.4757L73.3285 64.3754L69.094 55.2738C69.0247 55.0474 69.0274 54.78 69.1019 54.5568C69.1782 54.3284 69.3083 54.1978 69.4549 54.1491L69.4549 54.1491L69.4558 54.1488C69.6875 54.0712 69.9676 54.071 70.2006 54.1485C70.4312 54.2252 70.562 54.3559 70.6103 54.5009L70.6187 54.5262L70.6298 54.5504L73.9852 61.9001L74.2751 62.535L74.783 62.0563L83.0204 54.2918C83.276 54.1288 83.5059 54.0633 83.7158 54.0633C83.9114 54.0633 84.1246 54.1202 84.3598 54.2602C84.5002 54.4947 84.5568 54.7058 84.5568 54.8992C84.5568 55.1032 84.4938 55.3276 84.3359 55.5792L74.5468 64.6668L74.5466 64.6666L74.5372 64.6759C74.5371 64.676 74.5266 64.6851 74.4961 64.6974C74.4626 64.711 74.4163 64.7237 74.3569 64.7334C74.2348 64.7536 74.1058 64.7544 73.9917 64.7544H73.7675C73.701 64.7544 73.5874 64.7142 73.4737 64.6198Z" fill="#406DA2" stroke="#406DA2"/>
<path id="Vector_22" d="M43.9832 69.4875V69.4886C43.9836 69.6587 43.8934 69.871 43.7124 70.051C43.5316 70.2309 43.3166 70.3224 43.1425 70.3224H1.3407C1.16709 70.3224 0.952495 70.231 0.771599 70.0508C0.590517 69.8703 0.5 69.6576 0.5 69.4875V47.2159C0.5 47.0449 0.590656 46.8323 0.77147 46.6522C0.952151 46.4723 1.16675 46.381 1.3407 46.381H43.1425C43.3153 46.381 43.5299 46.4723 43.7112 46.6528C43.8926 46.8334 43.9832 47.0462 43.9832 47.2159V69.4875ZM2.18286 68.1527V68.6527H2.68286H41.8018H42.3018V68.1527V48.5507V48.0507H41.8018H2.68286H2.18286V48.5507V68.1527Z" fill="#406DA2" stroke="#406DA2"/>
</g>
</g>
</g>
</g>
</g>
</svg>
