<svg width="111" height="114" viewBox="0 0 111 114" fill="none" xmlns="http://www.w3.org/2000/svg">
<g id="Group">
<g id="Group_2">
<g id="Group_3">
<g id="_x38_42_x2C__Judge_Hammer_x2C__Laws_x2C__Regulation_x2C__Rules_Global">
<g id="Group_4">
<path id="Vector" d="M28.292 43.399L28.2919 43.399C26.6794 41.7947 26.6794 38.9125 28.2919 37.3082L28.292 37.3081L31.9097 33.7076C31.9097 33.7076 31.9098 33.7075 31.9098 33.7075C31.9925 33.6254 32.1525 33.5533 32.3865 33.5533C32.5991 33.5533 32.8344 33.6147 33.0421 33.7394C33.112 33.8278 33.1679 33.9749 33.1679 34.1785C33.1679 34.3918 33.1046 34.6288 32.9756 34.8375L29.3959 38.3988C29.3958 38.3988 29.3957 38.3989 29.3957 38.399C28.8076 38.9833 28.4936 39.7075 28.4936 40.4536C28.4936 41.1997 28.8077 41.9242 29.3956 42.5091C29.3956 42.5091 29.3957 42.5091 29.3957 42.5091L45.6752 58.7093C46.1925 59.2249 46.9348 59.4555 47.6362 59.4555C48.3372 59.4555 49.0799 59.2251 49.5962 58.709C49.5963 58.7089 49.5964 58.7088 49.5965 58.7087L53.2148 55.1102L53.2152 55.1098C53.2981 55.0272 53.4577 54.9551 53.6909 54.9551C53.903 54.9551 54.1384 55.0166 54.347 55.142C54.4169 55.2304 54.4728 55.3776 54.4728 55.5811C54.4728 55.7943 54.4095 56.0309 54.2806 56.2388L50.7267 59.7758C49.9837 60.3187 48.6981 60.8544 47.6375 60.8544C46.5646 60.8544 45.2841 60.3083 44.5732 59.6009C44.5732 59.6009 44.5732 59.6008 44.5732 59.6008L28.292 43.399Z" fill="#406DA2" stroke="#406DA2"/>
<path id="Vector_2" d="M37.3376 29.3978L37.3382 29.3984C37.4447 29.505 37.5035 29.5602 37.5677 29.5985C37.6171 29.628 37.6795 29.6527 37.7886 29.6527C37.9097 29.6527 38.044 29.6218 38.1706 29.5678C38.2992 29.5131 38.3934 29.446 38.441 29.3989L37.3376 29.3978ZM37.3376 29.3978C37.2549 29.3155 37.1831 29.1572 37.1831 28.9265C37.1831 28.7133 37.2463 28.4767 37.3752 28.2689L55.0252 10.706M37.3376 29.3978L55.0252 10.706M55.0252 10.706C55.0253 10.7059 55.0254 10.7058 55.0255 10.7057L55.0252 10.706ZM56.0907 11.8362L38.4412 29.3986L56.0907 11.8362Z" fill="#406DA2" stroke="#406DA2"/>
<path id="Vector_3" d="M72.1128 37.2004L72.1128 37.2003L72.1104 37.198C72.0285 37.1166 71.9565 36.9589 71.9565 36.7277C71.9565 36.5143 72.0198 36.2774 72.1487 36.0696L76.5325 31.7068C76.5325 31.7067 76.5326 31.7067 76.5326 31.7067C76.6152 31.6247 76.7755 31.5526 77.0097 31.5526C77.2226 31.5526 77.4578 31.614 77.6648 31.7384C77.7347 31.8268 77.7906 31.974 77.7906 32.1777C77.7906 32.391 77.7274 32.6281 77.5983 32.8367L73.2144 37.1983L73.2141 37.1986C73.0761 37.3362 72.9505 37.3945 72.8522 37.4224C72.7484 37.452 72.658 37.4534 72.5621 37.4534C72.4528 37.4534 72.39 37.4287 72.3403 37.3991C72.2765 37.361 72.2175 37.3058 72.1128 37.2004Z" fill="#406DA2" stroke="#406DA2"/>
<path id="Vector_4" d="M63.0655 45.1075L63.0658 45.1072C63.1485 45.0248 63.3084 44.9526 63.5419 44.9526C63.7544 44.9526 63.9896 45.0142 64.1974 45.1393C64.2674 45.2277 64.3233 45.3749 64.3233 45.5786C64.3233 45.7917 64.2601 46.0283 64.1312 46.2362L59.7474 50.599C59.7474 50.599 59.7474 50.5991 59.7473 50.5991C59.6998 50.6463 59.6056 50.7134 59.4768 50.7683C59.3501 50.8222 59.2159 50.8531 59.0948 50.8531C58.9857 50.8531 58.9231 50.8284 58.8734 50.7988C58.809 50.7604 58.7503 50.7055 58.6435 50.5994C58.561 50.5169 58.4893 50.3588 58.4893 50.1282C58.4893 49.9151 58.5525 49.6785 58.6814 49.4706L63.0655 45.1075Z" fill="#406DA2" stroke="#406DA2"/>
<path id="Vector_5" d="M63.0653 46.1985L63.065 46.1982C62.9831 46.1168 62.9111 45.9591 62.9111 45.7279C62.9111 45.5145 62.9744 45.2776 63.1033 45.0698L71.9094 36.3071L71.9103 36.3062C71.9602 36.2563 72.0611 36.1848 72.1813 36.1249C72.2382 36.0965 72.2895 36.0757 72.3295 36.063C72.3429 36.0587 72.3531 36.056 72.3601 36.0543C72.3672 36.056 72.3776 36.0587 72.3914 36.0631C72.4313 36.0757 72.4823 36.0963 72.5389 36.1245C72.6582 36.1839 72.759 36.2553 72.8099 36.3062L72.8108 36.3071L108.186 71.509L108.186 71.5091C109.5 72.8158 110.251 74.4885 110.251 76.5538C110.251 78.5964 109.518 80.0813 108.174 81.6118C107.066 82.7112 105.39 83.4552 103.516 83.4552C101.655 83.4552 99.9631 82.7199 98.4298 81.3885L63.0653 46.1985ZM64.978 45.1938L64.6118 45.5482L64.973 45.9076L99.5441 80.3094L99.5441 80.3095C100.66 81.4193 102.003 81.8541 103.516 81.8541C105.073 81.8541 106.385 81.1897 107.444 80.3462L107.466 80.3291L107.485 80.3097C108.603 79.1994 109.04 77.862 109.04 76.3542C109.04 74.8036 108.37 73.4953 107.522 72.4413L107.505 72.4192L107.485 72.3992L72.9134 38.197L72.5657 37.853L72.2141 38.1931L64.978 45.1938Z" fill="#406DA2" stroke="#406DA2"/>
<path id="Vector_6" d="M81.7591 27.5981L81.7597 27.5987C81.8649 27.7039 81.9239 27.759 81.988 27.7971C82.0379 27.8269 82.1009 27.8516 82.2101 27.8516C82.3324 27.8516 82.4665 27.8207 82.5925 27.7672C82.7201 27.7131 82.8144 27.6463 82.8633 27.5983C82.8635 27.5981 82.8637 27.5979 82.8639 27.5977L86.4791 23.9984L86.4792 23.9983C87.1903 23.2907 87.7389 22.0186 87.7389 20.9528C87.7389 19.8708 87.3802 18.8024 86.4792 17.9062L86.4791 17.9061L70.198 1.70424L70.1979 1.70415C68.5853 0.0986864 65.6833 0.0985014 64.0692 1.70428L60.4905 5.26728C60.3616 5.47516 60.2983 5.71178 60.2983 5.92494C60.2983 6.12875 60.3544 6.27601 60.4244 6.36436C60.6315 6.48938 60.8663 6.55095 61.0786 6.55095C61.3084 6.55095 61.467 6.48093 61.5508 6.40003L64.9633 2.8066L64.9682 2.80144L64.9733 2.79643C65.5607 2.2121 66.2874 1.90112 67.0344 1.90112C67.7815 1.90112 68.5081 2.2121 69.0956 2.79643L69.0956 2.79649L85.3752 18.9967C85.8926 19.5107 86.1272 20.2506 86.1272 20.9515C86.1272 21.6523 85.8927 22.392 85.3756 22.9059L81.7591 27.5981ZM81.7591 27.5981C81.6764 27.5157 81.6046 27.3575 81.6046 27.1267C81.6046 26.9136 81.6678 26.6769 81.7968 26.4691L85.3752 22.9063L81.7591 27.5981Z" fill="#406DA2" stroke="#406DA2"/>
<path id="Vector_7" d="M54.0674 56.6529L54.0459 56.6243L54.0205 56.599L31.3072 33.9981C29.8957 32.5935 29.8956 30.3118 31.3071 28.9071C31.3071 28.9071 31.3072 28.907 31.3072 28.907L32.7141 27.508L32.7145 27.5076C33.4273 26.7972 34.3064 26.4528 35.1756 26.4528C36.0913 26.4528 37.116 26.8241 37.5901 27.4541L37.6116 27.4827L37.637 27.5079L60.3502 50.1088C61.7618 51.5134 61.7618 53.7953 60.3502 55.1999L60.3366 55.2135L60.324 55.2281L59.1544 56.5863C58.3819 57.1562 57.501 57.6541 56.4819 57.6541C55.565 57.6541 54.5403 57.2816 54.0674 56.6529ZM33.746 28.506L33.6741 28.542L33.617 28.5987L32.21 29.9978L32.2098 29.998C31.4105 30.7938 31.4105 32.1113 32.2098 32.9071L32.2115 32.9088L55.1245 55.5084C55.1248 55.5087 55.1251 55.509 55.1254 55.5093C55.4371 55.8184 55.9744 56.053 56.6829 56.053C57.2996 56.053 57.6437 55.8599 57.9278 55.7006C57.9911 55.665 58.0515 55.6311 58.1113 55.6014L58.184 55.5653L58.2416 55.508L59.6483 54.108C60.4483 53.3132 60.4478 51.994 59.6487 51.1985L59.647 51.1968L36.7327 28.5959L36.6757 28.5397L36.604 28.5041C36.5898 28.497 36.5753 28.4898 36.5606 28.4825C36.1915 28.2988 35.697 28.0526 35.1756 28.0526C34.6513 28.0526 34.1549 28.3012 33.7843 28.4868C33.7714 28.4933 33.7586 28.4997 33.746 28.506Z" fill="#406DA2" stroke="#406DA2"/>
<path id="Vector_8" d="M77.1808 33.6505L77.1596 33.6224L77.1346 33.5975L54.4226 10.9966L54.4226 10.9966C53.7099 10.2874 53.3652 9.41404 53.3652 8.55156C53.3652 7.64276 53.7381 6.62356 54.369 6.15279L54.3975 6.13146L54.4228 6.10629L55.8296 4.70477C55.8297 4.70473 55.8297 4.70468 55.8298 4.70463C55.8298 4.70461 55.8298 4.70459 55.8298 4.70456C56.5427 3.99534 57.4218 3.65094 58.291 3.65094C59.2067 3.65094 60.2316 4.02227 60.7057 4.65129L60.7271 4.67964L60.7522 4.70468L61.3552 5.30504L61.357 5.30674L83.4656 27.106C83.4658 27.1062 83.466 27.1064 83.4662 27.1066C84.8772 28.5112 84.877 30.7927 83.4656 32.1971L83.4656 32.1971L82.0585 33.5975L82.0332 33.6227L82.0117 33.6513C81.5309 34.2903 80.6987 34.6526 79.5959 34.6526C78.681 34.6526 77.6567 34.2805 77.1808 33.6505ZM56.8614 5.50454L56.7894 5.5405L56.7324 5.5972L55.3254 6.99628L55.2676 7.05377L55.231 7.12664C54.9765 7.63403 54.9767 8.13752 54.9769 8.5208C54.9769 8.53114 54.9769 8.54139 54.9769 8.55156C54.9769 9.07167 55.2244 9.56357 55.4088 9.93027C55.4167 9.9459 55.4244 9.96131 55.432 9.97648L55.4685 10.0493L55.5263 10.1067L78.2396 32.7063L78.241 32.7077C78.5524 33.015 79.0872 33.2525 79.7995 33.2525C80.4173 33.2525 80.7606 33.0588 81.0448 32.8985C81.1079 32.8629 81.1682 32.8289 81.2279 32.799L81.2998 32.7631L81.3568 32.7064L82.7638 31.3073L82.764 31.3071C83.5633 30.5113 83.5633 29.1938 82.764 28.398L82.7636 28.3976L82.1609 27.7988L82.1606 27.7985L59.8497 5.59733L59.7926 5.54054L59.7206 5.50454C59.708 5.49823 59.6952 5.49184 59.6823 5.48536C59.3117 5.29973 58.8152 5.05107 58.291 5.05107C57.7667 5.05107 57.2703 5.29972 56.8997 5.48535C56.8868 5.49183 56.874 5.49823 56.8614 5.50454Z" fill="#406DA2" stroke="#406DA2"/>
<path id="Vector_9" d="M37.0638 75.0202C36.0444 71.3685 34.5076 68.3459 32.663 66.2259C30.8203 64.1081 28.6335 62.8537 26.3311 62.8537C24.0253 62.8537 21.8884 64.1115 20.0722 66.2285C18.2554 68.3464 16.7206 71.3649 15.602 75.0079L15.6018 75.0079L15.5984 75.0202C14.581 78.6639 13.9719 82.9103 13.9719 87.1553C13.9719 91.4003 14.581 95.6455 15.5983 99.2904L15.5983 99.2904L15.6009 99.2991C16.7194 103.043 18.2547 106.064 20.0742 108.159C21.8951 110.256 24.0322 111.457 26.3311 111.457C28.6368 111.457 30.7738 110.199 32.5899 108.082C34.4068 105.964 35.9415 102.946 37.0602 99.3027L37.0603 99.3028L37.0638 99.2904C38.0811 95.6455 38.6902 91.4003 38.6902 87.1553C38.6902 82.9103 38.0811 78.6639 37.0638 75.0202ZM37.0638 75.0202L36.5822 75.1547M37.0638 75.0202C37.0638 75.0202 37.0638 75.0202 37.0638 75.0202L36.5822 75.1547M36.5822 75.1547C37.5872 78.7542 38.1902 82.9554 38.1902 87.1553C38.1902 91.3552 37.5872 95.5551 36.5822 99.156C34.3712 106.356 30.5521 110.957 26.3311 110.957C22.11 110.957 18.291 106.556 16.0799 99.156C15.0749 95.5551 14.4719 91.3552 14.4719 87.1553C14.4719 82.9554 15.0749 78.7542 16.0799 75.1547C18.291 67.9543 22.11 63.3537 26.3311 63.3537C30.5521 63.3537 34.5722 67.9543 36.5822 75.1547ZM14.1485 99.818L14.1487 99.8179L14.1445 99.8048C12.9565 96.061 12.3589 91.7135 12.3589 87.355C12.3589 82.9978 12.9565 78.649 14.1445 74.9066L14.1447 74.9067L14.1485 74.8933C15.3378 70.7509 17.1636 67.4268 19.3084 65.1472C21.4533 62.8674 23.8925 61.6546 26.3311 61.6546C31.4061 61.6546 36.1181 66.5496 38.5136 74.8933L38.5134 74.8934L38.5176 74.9065C39.7056 78.6503 40.3032 82.9978 40.3032 87.355C40.3032 91.7135 39.7056 96.0623 38.5176 99.8047L38.5175 99.8047L38.5136 99.818C36.1181 108.16 31.4061 113.057 26.3311 113.057C21.256 113.057 16.544 108.16 14.1485 99.818Z" fill="#406DA2" stroke="#406DA2"/>
<path id="Vector_10" d="M14.5032 75.5119L14.4917 75.5059L14.4799 75.5004C11.932 74.3296 9.57347 72.5713 7.60524 70.4166L7.59734 70.408L7.58904 70.3997C7.50641 70.3173 7.43457 70.1591 7.43457 69.9283C7.43457 69.7183 7.49596 69.4856 7.62105 69.2799C7.70996 69.2099 7.8588 69.1536 8.06521 69.1536C8.27745 69.1536 8.51251 69.215 8.72017 69.34C10.566 71.3661 12.8091 72.9846 15.2493 74.1994C18.7436 76.0388 22.4411 76.8541 26.3313 76.8541C30.2118 76.8541 34.115 76.0426 37.4191 74.1966C39.8711 72.9744 42.1283 71.345 43.9785 69.3003C44.2399 69.0476 44.7183 68.9545 45.0738 69.3084L45.0741 69.3088C45.333 69.566 45.4306 70.045 45.0742 70.3991L45.0656 70.4076L45.0575 70.4165C43.0878 72.5713 40.7293 74.3297 38.1826 75.5005L38.1657 75.5082L38.1495 75.5172C34.6107 77.4742 30.6748 78.4553 26.3313 78.4553C22.1928 78.4553 18.2522 77.4759 14.5032 75.5119Z" fill="#406DA2" stroke="#406DA2"/>
<path id="Vector_11" d="M8.71153 104.983L8.70157 104.992L8.6921 105.001C8.43261 105.26 7.94797 105.359 7.58882 105.001L7.58843 105.001C7.3298 104.744 7.23159 104.266 7.58882 103.91L7.59722 103.902L7.60521 103.893C9.5614 101.751 11.9182 100.183 14.5053 98.7964C18.2536 96.8331 22.1935 95.8541 26.3313 95.8541C30.469 95.8541 34.4102 96.8331 38.1586 98.7964C40.7264 100.174 43.0984 101.944 45.0749 103.91C45.1575 103.992 45.2293 104.15 45.2293 104.381C45.2293 104.607 45.1581 104.86 45.0126 105.077L44.9954 105.102L44.9815 105.13C44.8904 105.31 44.8289 105.383 44.7882 105.416C44.7655 105.434 44.7302 105.457 44.6225 105.457C44.5184 105.457 44.4443 105.435 44.3428 105.384C44.2863 105.356 44.2282 105.323 44.1473 105.276L44.1369 105.27C44.0759 105.235 44.0058 105.195 43.9268 105.153C42.0837 103.134 39.845 101.522 37.4133 100.311C33.919 98.4716 30.2214 97.6563 26.3313 97.6563C22.4424 97.6563 18.7435 98.4716 15.2492 100.311C12.78 101.541 10.7323 103.173 8.71153 104.983Z" fill="#406DA2" stroke="#406DA2"/>
<path id="Vector_12" d="M51.6576 88.0558H1.20601C1.06602 88.0558 0.885042 87.9813 0.729526 87.8266C0.573924 87.6718 0.5 87.4926 0.5 87.355C0.5 87.2192 0.57354 87.0403 0.729524 86.8852C0.885311 86.7302 1.06632 86.6556 1.20601 86.6556H51.6576C51.7978 86.6556 51.9792 86.7302 52.1352 86.8851C52.2913 87.04 52.365 87.2187 52.365 87.355H52.865L52.365 87.3539C52.3647 87.4912 52.2904 87.6708 52.1343 87.8261C51.9783 87.9813 51.7973 88.0558 51.6576 88.0558Z" fill="#406DA2" stroke="#406DA2"/>
<path id="Vector_13" d="M27.0375 112.356V112.418L27.0525 112.478C27.1144 112.724 27.0466 112.824 26.9801 112.882C26.8795 112.971 26.6664 113.057 26.3315 113.057C26.1915 113.057 26.0105 112.982 25.855 112.828C25.6994 112.673 25.6255 112.494 25.6255 112.356V62.1544C25.6255 62.0176 25.6993 61.8384 25.8551 61.6832C26.0109 61.5282 26.1918 61.4537 26.3315 61.4537C26.4715 61.4537 26.6525 61.5281 26.808 61.6829C26.9636 61.8377 27.0375 62.0168 27.0375 62.1544V112.356Z" fill="#406DA2" stroke="#406DA2"/>
<path id="Vector_14" d="M7.60214 105.016L7.6022 105.016L7.59591 105.009C2.8667 100.108 0.5 93.8341 0.5 87.1567C0.5 80.4887 3.06041 74.2099 7.59947 69.2988C12.5332 64.1945 19.2372 61.2552 26.3313 61.2552C33.4355 61.2552 40.1347 64.002 45.0605 69.296L45.0604 69.296L45.0667 69.3025C49.7959 74.2041 52.1626 80.4779 52.1626 87.1567C52.1626 93.8251 49.6008 100.106 45.0594 105.017L45.0594 105.017L45.0536 105.024C40.3338 110.307 33.6407 113.057 26.3313 113.057C19.2271 113.057 12.528 110.31 7.60214 105.016ZM8.68563 103.903L8.68629 103.904C13.402 108.8 19.5614 111.458 26.3313 111.458C33.0943 111.458 39.4599 108.806 43.9818 103.899C48.2893 99.4077 50.7506 93.2847 50.7506 87.1567C50.7506 80.8254 48.2877 74.9038 43.9818 70.4126C39.4599 65.5062 33.0943 62.8537 26.3313 62.8537C19.5684 62.8537 13.2027 65.5061 8.68207 70.4127C4.37464 74.9056 1.91335 81.0273 1.91335 87.1567C1.91335 93.4883 4.37752 99.4127 8.68563 103.903Z" fill="#406DA2" stroke="#406DA2"/>
<path id="Vector_15" d="M91.6561 113.057H5.02535C4.88535 113.057 4.70438 112.982 4.54886 112.828C4.39326 112.673 4.31934 112.494 4.31934 112.356C4.31934 112.22 4.39288 112.041 4.54886 111.886C4.70465 111.731 4.88566 111.657 5.02535 111.657H91.6561C91.797 111.657 91.9784 111.731 92.134 111.886C92.2897 112.041 92.3634 112.219 92.3634 112.356C92.3634 112.62 92.269 112.782 92.1552 112.882C92.032 112.991 91.8528 113.057 91.6561 113.057Z" fill="#406DA2" stroke="#406DA2"/>
</g>
</g>
</g>
</g>
</g>
</svg>
