<svg width="111" height="118" viewBox="0 0 111 118" fill="none" xmlns="http://www.w3.org/2000/svg">
<g id="Group">
<g id="Group_2">
<g id="Group_3">
<g id="_x38_28_x2C__Book_x2C__Judge_x2C__Justice_x2C__Law_x2C__Book">
<g id="Group_4">
<path id="Vector" d="M0.520753 103.598L0.532056 103.565L0.538441 103.529C1.00417 100.97 1.92606 98.9076 3.76007 97.0735L3.7602 97.0734C5.83653 94.9956 8.83442 93.62 11.8065 93.62H91.2481C91.4455 93.62 91.6848 93.7237 91.8847 93.9235C92.0846 94.1233 92.1881 94.3621 92.1881 94.5584C92.1881 94.755 92.0844 94.9948 91.8842 95.1954C91.6839 95.3961 91.4448 95.5 91.2481 95.5H12.0465C9.50161 95.5 7.22875 96.5196 5.23727 98.2621L5.22484 98.273L5.21316 98.2847C3.68598 99.8102 2.93395 101.587 2.44147 103.555L2.42652 103.615V103.677C2.42652 104.023 2.30199 104.246 2.14403 104.386C1.99004 104.523 1.77677 104.606 1.54595 104.618C1.17239 104.513 0.869906 104.326 0.688165 104.124C0.500048 103.915 0.473992 103.738 0.520753 103.598Z" fill="#406DA2" stroke="#406DA2"/>
<path id="Vector_2" d="M0.734558 103.662L0.750071 103.631L0.761098 103.598C0.85291 103.323 1.0398 103.046 1.25895 102.871C1.47648 102.697 1.66244 102.666 1.80958 102.715C2.08412 102.806 2.36067 102.992 2.53613 103.212C2.7105 103.43 2.74113 103.616 2.69252 103.762L2.66676 103.839V103.92V103.923V103.926V103.928V103.931V103.934V103.937V103.94V103.942V103.945V103.948V103.951V103.954V103.957V103.959V103.962V103.965V103.968V103.971V103.973V103.976V103.979V103.982V103.985V103.987V103.99V103.993V103.996V103.999V104.001V104.004V104.007V104.01V104.013V104.015V104.018V104.021V104.024V104.027V104.03V104.032V104.035V104.038V104.041V104.044V104.046V104.049V104.052V104.055V104.058V104.06V104.063V104.066V104.069V104.072V104.074V104.077V104.08V104.083V104.085V104.088V104.091V104.094V104.097V104.099V104.102V104.105V104.108V104.111V104.113V104.116V104.119V104.122V104.124V104.127V104.13V104.133V104.136V104.138V104.141V104.144V104.147V104.149V104.152V104.155V104.158V104.161V104.163V104.166V104.169V104.172V104.174V104.177V104.18V104.183V104.185V104.188V104.191V104.194V104.197V104.199V104.202V104.205V104.208V104.21V104.213V104.216V104.219V104.221V104.224V104.227V104.23V104.232V104.235V104.238V104.24V104.243V104.246V104.249V104.251V104.254V104.257V104.26V104.262V104.265V104.268V104.271V104.273V104.276V104.279V104.281V104.284V104.287V104.29V104.292V104.295V104.298V104.3V104.303V104.306V104.309V104.311V104.314V104.317V104.319V104.322V104.325V104.327V104.33V104.333V104.336V104.338V104.341V104.344V104.346V104.349V104.352V104.354V104.357V104.36V104.362V104.365V104.368V104.37V104.373V104.376V104.378V104.381V104.384V104.386V104.389V104.392V104.394V104.397V104.4V104.402V104.405V104.407V104.41V104.413V104.415V104.418V104.421V104.423V104.426V104.429V104.431V104.434V104.436V104.439V104.442V104.444V104.447V104.449V104.452V104.455V104.457V104.46V104.463V104.465V104.468V104.47V104.473V104.475V104.478V104.481V104.483V104.486V104.488V104.491V104.494V104.496V104.499V104.501V104.504V104.506V104.509V104.512V104.514V104.517V104.519V104.522V104.524V104.527V104.529V104.532V104.534V104.537V104.539V104.542V104.545V104.547V104.55V104.552V104.555V104.557V104.56V104.562V104.565V104.567V104.57V104.572V104.575V104.577V104.58V104.582V104.585V104.587V104.59V104.592V104.595V104.597V104.6V104.602V104.604V104.607V104.609V104.612V104.614V104.617V104.619V104.622V104.624V104.627V104.629V104.631V104.634V104.636V104.639V104.641V104.644V104.646V104.648V104.651V104.653V104.656V104.658V104.66V104.663V104.665V104.668V104.67V104.672V104.675V104.677V104.679V104.682V104.684V104.687V104.689V104.691V104.694V104.696V104.698V104.701V104.703V104.705V104.708V104.71V104.712V104.715V104.717V104.719V104.722V104.724V104.726V104.729V104.731V104.733V104.736V104.738V104.74V104.742V104.745V104.747V104.749V104.752V104.754V104.756V104.758V104.761V104.763V104.765V104.767V104.77V104.772V104.774V104.776V104.779V104.781V104.783V104.785V104.788V104.79V104.792V104.794V104.796V104.799V104.801V104.803V104.805V104.807V104.81V104.812V104.814V104.816V104.818V104.82V104.823V104.825V104.827V104.829V104.831V104.833V104.836V104.838V104.84V104.842V104.844V104.846V104.848V104.85V104.853V104.855V104.857V104.859V104.861V104.863V104.865V104.867V104.869V104.871V104.873V104.876V104.878V104.88V104.882V104.884V104.886V104.888V104.89V104.892V104.894V104.896V104.898V104.9V104.902V104.904V104.906V104.908V104.91V104.912V104.914V104.916V104.918V104.92V104.922V104.924V104.926V104.928V104.93V104.932V104.934V104.936V104.938V104.94V104.942V104.943V104.945V104.947V104.949V104.951V104.953V104.955V104.957V104.959V104.961V104.963V104.964V104.966V104.968V104.97V104.972V104.974V104.976V104.977V104.979V104.981V104.983V104.985V104.987V104.988V104.99V104.992V104.994V104.996V104.997V104.999V105.001V105.003V105.005V105.006V105.008V105.01V105.012V105.013V105.015V105.017V105.019V105.02V105.022V105.024V105.026V105.027V105.029V105.031V105.032V105.034V105.036V105.038V105.039V105.041V105.043V105.044V105.046V105.048V105.049V105.051V105.053V105.054V105.056V105.057V105.059V105.061V105.062V105.064V105.066V105.067V105.069V105.07V105.072V105.074V105.075V105.077V105.078V105.08V105.081V105.083V105.084V105.086V105.088V105.089V105.091V105.092V105.094V105.095V105.097V105.098V105.1V105.101V105.103V105.104V105.106V105.107V105.108V105.11V105.111V105.113V105.114V105.116V105.117V105.119V105.12C2.66676 110.435 6.9722 114.74 12.2868 114.74H91.4868C91.6843 114.74 91.9241 114.844 92.1244 115.044C92.2997 115.219 92.401 115.423 92.4235 115.603C92.3237 115.852 92.1484 116.104 91.9326 116.299C91.689 116.518 91.4429 116.62 91.2468 116.62H12.0468C5.60299 116.62 0.54834 111.564 0.54834 105.12C0.54834 104.877 0.5487 104.601 0.575691 104.329C0.603228 104.052 0.655036 103.822 0.734558 103.662Z" fill="#406DA2" stroke="#406DA2"/>
<path id="Vector_3" d="M86.6866 116.62C86.4892 116.62 86.25 116.516 86.0503 116.316C85.8505 116.117 85.7466 115.877 85.7466 115.678V94.56C85.7466 94.3627 85.8502 94.124 86.0499 93.9246C86.2495 93.7252 86.4888 93.6216 86.6866 93.6216C86.884 93.6216 87.1233 93.7253 87.3232 93.9251C87.5231 94.1249 87.6266 94.3637 87.6266 94.56V115.68C87.6266 115.878 87.5227 116.117 87.3232 116.317C87.1235 116.516 86.8843 116.62 86.6866 116.62Z" fill="#406DA2" stroke="#406DA2"/>
<path id="Vector_4" d="M19.4864 95.5016C19.2894 95.5016 19.0502 95.3978 18.8502 95.1975C18.6502 94.9972 18.5464 94.7575 18.5464 94.56V1.67841C18.5464 1.48114 18.65 1.24239 18.8497 1.04301C19.0493 0.843642 19.2886 0.73999 19.4864 0.73999C19.6838 0.73999 19.9231 0.843741 20.123 1.04348C20.3229 1.24327 20.4264 1.48209 20.4264 1.67841V94.8C20.4264 94.978 20.3413 95.1422 20.1691 95.2764C19.9915 95.4147 19.7411 95.5016 19.4864 95.5016Z" fill="#406DA2" stroke="#406DA2"/>
<path id="Vector_5" d="M91.4864 13.1785H19.4864C19.289 13.1785 19.0497 13.0747 18.8498 12.875C18.6499 12.6752 18.5464 12.4364 18.5464 12.2401C18.5464 12.0437 18.6499 11.8049 18.8498 11.6051C19.0497 11.4054 19.289 11.3016 19.4864 11.3016H91.4864C91.6839 11.3016 91.9237 11.4055 92.124 11.6054C92.3244 11.8053 92.428 12.0441 92.428 12.2401C92.428 12.436 92.3244 12.6748 92.124 12.8747C91.9237 13.0746 91.6839 13.1785 91.4864 13.1785Z" fill="#406DA2" stroke="#406DA2"/>
<path id="Vector_6" d="M86.6865 109.178H28.1265C27.9291 109.178 27.6898 109.075 27.4899 108.875C27.29 108.675 27.1865 108.436 27.1865 108.24C27.1865 108.044 27.29 107.805 27.4899 107.605C27.6898 107.405 27.9291 107.302 28.1265 107.302H86.6865C86.8839 107.302 87.1232 107.405 87.3231 107.605C87.523 107.805 87.6265 108.044 87.6265 108.24C87.6265 108.436 87.523 108.675 87.3231 108.875C87.1232 109.075 86.8839 109.178 86.6865 109.178Z" fill="#406DA2" stroke="#406DA2"/>
<path id="Vector_7" d="M91.4864 95.5016C91.2894 95.5016 91.0502 95.3978 90.8502 95.1975C90.6502 94.9973 90.5464 94.7576 90.5464 94.5601V75.3601C90.5464 75.1628 90.65 74.924 90.8497 74.7247C91.0493 74.5253 91.2886 74.4216 91.4864 74.4216C91.6839 74.4216 91.9237 74.5255 92.124 74.7254C92.3244 74.9253 92.428 75.1641 92.428 75.3601V94.5596C92.4273 94.904 92.3028 95.1262 92.1442 95.2673C91.9766 95.4165 91.7394 95.5016 91.4864 95.5016Z" fill="#406DA2" stroke="#406DA2"/>
<path id="Vector_8" d="M2.42639 18.72V103.178H1.48639H0.546387V18.72C0.546387 8.67614 8.72253 0.5 18.7664 0.5H91.7264C91.9238 0.5 92.1631 0.603751 92.363 0.803485C92.5629 1.00328 92.6664 1.2421 92.6664 1.43842V37.2C92.6664 37.3973 92.5628 37.636 92.3631 37.8354C92.1634 38.0348 91.9241 38.1384 91.7264 38.1384C91.529 38.1384 91.2897 38.0347 91.0898 37.8349C90.8899 37.6351 90.7864 37.3963 90.7864 37.2V3.12V2.62H90.2864H18.5264C9.61028 2.62 2.42639 9.80224 2.42639 18.72Z" fill="#406DA2" stroke="#406DA2"/>
<path id="Vector_9" d="M54.8811 52.9242L54.882 52.9251L55.8045 53.8491C56.0729 54.0171 56.3799 54.0999 56.6582 54.0999C56.9296 54.0999 57.1354 54.023 57.2617 53.9166C57.4267 53.6499 57.5082 53.3455 57.5082 53.0692C57.5082 52.7723 57.4164 52.5539 57.2949 52.4322L57.2946 52.4319L56.3547 51.4936C55.2121 50.5858 53.8863 49.9399 52.3682 49.9399C50.8048 49.9399 49.507 50.3785 48.4196 51.4541C47.5138 52.5949 46.8682 53.9205 46.8682 55.4399C46.8682 57.0147 47.3107 58.3169 48.4001 59.4064L65.4202 76.4264C66.5611 77.3325 67.8869 77.9784 69.4066 77.9784C70.9708 77.9784 72.2682 77.5424 73.3533 76.466C74.2592 75.3253 74.905 73.998 74.905 72.4784C74.905 70.9066 74.4624 69.6013 73.373 68.5119L72.4506 67.591C72.1821 67.4228 71.875 67.3399 71.5966 67.3399C71.3251 67.3399 71.1193 67.4169 70.993 67.5233C70.8279 67.7901 70.7466 68.0938 70.7466 68.3692C70.7466 68.665 70.8382 68.8829 70.9601 69.0048L70.9604 69.0051L71.9201 69.9664L71.9204 69.9667M54.8811 52.9242L67.2466 74.6399C67.7266 75.1199 68.4466 75.6015 69.4066 75.6015C70.3666 75.6015 70.8466 75.3599 71.5666 74.6399C72.0466 74.1599 72.5266 73.4399 72.5266 72.4784C72.5266 71.7584 72.2866 71.0399 71.5666 70.3199L71.9204 69.9667M54.8811 52.9242C54.347 52.3918 53.5075 51.8199 52.3682 51.8199C51.8459 51.8199 51.4082 51.8848 50.9912 52.0737C50.5803 52.2599 50.23 52.5486 49.8544 52.925C48.4593 54.3203 48.4594 56.5583 49.8546 57.9535L66.893 74.9935L66.893 74.9935C67.427 75.5275 68.2667 76.1015 69.4066 76.1015C69.9296 76.1015 70.3671 76.0357 70.7839 75.8457C71.1943 75.6587 71.5443 75.3693 71.9201 74.9935C72.4548 74.4589 73.0266 73.6192 73.0266 72.4784C73.0266 71.6241 72.7327 70.7791 71.9204 69.9667M54.8811 52.9242L71.9204 69.9667" fill="#406DA2" stroke="#406DA2"/>
<path id="Vector_10" d="M76.9601 62.5249L76.9596 62.5243C76.8384 62.4035 76.7466 62.1862 76.7466 61.8898C76.7466 61.5982 76.8377 61.2748 77.0226 60.9973C77.1404 60.8206 77.3055 60.7491 77.5582 60.7685C77.8231 60.7889 78.1445 60.9138 78.4495 61.11L102.173 84.832C102.173 84.832 102.173 84.832 102.173 84.832C102.464 85.1229 102.877 85.3942 103.307 85.593C103.734 85.7906 104.228 85.94 104.687 85.94C105.54 85.94 106.387 85.6483 107.2 84.8319C107.491 84.5414 107.762 84.1289 107.961 83.6994C108.158 83.2724 108.307 82.7783 108.307 82.32C108.307 81.4667 108.015 80.6179 107.2 79.8045L83.4401 56.048C83.4401 56.048 83.4401 56.048 83.4401 56.048C83.3185 55.9263 83.2266 55.7079 83.2266 55.4108C83.2266 55.1344 83.308 54.8301 83.473 54.5634C83.5993 54.4569 83.8051 54.38 84.0766 54.38C84.3549 54.38 84.662 54.4629 84.9304 54.6309L108.653 78.3551L108.653 78.3554C109.744 79.4448 110.187 80.7469 110.187 82.3216C110.187 83.8948 109.744 85.1984 108.653 86.2878C107.564 87.376 106.259 87.82 104.687 87.82C103.169 87.82 101.843 87.1743 100.7 86.2665L76.9601 62.5249Z" fill="#406DA2" stroke="#406DA2"/>
<path id="Vector_11" d="M70.9613 69.0076L70.9601 69.0064L56.0801 54.1264L56.079 54.1253C56.0094 54.0562 55.9184 53.9264 55.8438 53.7772C55.8081 53.7057 55.7812 53.6399 55.7642 53.5866C55.7491 53.5392 55.7469 53.5174 55.7466 53.5174C55.7465 53.5174 55.7466 53.5188 55.7466 53.5216C55.7466 53.2607 55.8449 53.1488 56.0801 52.9136L75.2801 33.7136L75.2807 33.713C75.4014 33.5919 75.619 33.5 75.916 33.5C76.1921 33.5 76.4965 33.5814 76.7632 33.7464C76.8695 33.8727 76.9466 34.0788 76.9466 34.3508C76.9466 34.6296 76.8637 34.937 76.6956 35.2054L58.733 53.168L58.3795 53.5216L58.733 53.8751L71.453 66.5951L71.8066 66.9487L72.1601 66.5951L90.1601 48.5951C90.2819 48.4733 90.5001 48.3816 90.7966 48.3816C91.0724 48.3816 91.3765 48.463 91.6432 48.628C91.7497 48.7543 91.8266 48.9598 91.8266 49.2312C91.8266 49.5094 91.7438 49.8171 91.5753 50.0874L72.5472 69.1154C72.331 69.1401 72.1574 69.1974 72.0213 69.2424L72.0099 69.2462C71.8297 69.3056 71.7181 69.34 71.5666 69.34C71.3072 69.34 71.1935 69.2413 70.9613 69.0076Z" fill="#406DA2" stroke="#406DA2"/>
<path id="Vector_12" d="M73.8209 26.2918L73.8307 26.2829L73.8401 26.2735C74.9297 25.1839 76.2337 24.74 77.8065 24.74C79.3263 24.74 80.652 25.3858 81.7928 26.2934L92.093 36.5935L98.573 43.0735L98.5732 43.0738C99.664 44.1632 100.107 45.4653 100.107 47.04C100.107 48.5595 99.4609 49.8851 98.5536 51.0257C97.6783 51.8914 96.3703 52.54 94.8465 52.54C93.3268 52.54 92.001 51.8941 90.8603 50.9866L73.8401 33.9664C71.6243 31.7507 71.6528 28.2416 73.8209 26.2918ZM75.293 32.7535L75.293 32.7536L92.3345 49.792C92.3346 49.792 92.3346 49.792 92.3346 49.792C92.8686 50.326 93.7082 50.9 94.8481 50.9C95.3712 50.9 95.8086 50.8341 96.2255 50.6442C96.6358 50.4572 96.9858 50.1678 97.3616 49.792C97.8963 49.2573 98.4681 48.4177 98.4681 47.2768C98.4681 46.4224 98.1741 45.5774 97.3616 44.7649L90.6417 38.0449L90.6417 38.0449L80.3544 27.756C79.7434 26.88 78.8379 26.62 77.8065 26.62C76.9531 26.62 76.1061 26.9117 75.293 27.7249C73.8977 29.1201 73.8977 31.3583 75.293 32.7535Z" fill="#406DA2" stroke="#406DA2"/>
<path id="Vector_13" d="M44.9267 23.5016H29.8067C29.6097 23.5016 29.3705 23.3978 29.1705 23.1975C28.9705 22.9972 28.8667 22.7575 28.8667 22.56C28.8667 22.3627 28.9703 22.124 29.17 21.9246C29.3697 21.7252 29.609 21.6216 29.8067 21.6216H44.9267C45.1241 21.6216 45.3634 21.7253 45.5633 21.9251C45.7632 22.1249 45.8667 22.3637 45.8667 22.56C45.8667 22.9629 45.7663 23.1739 45.6529 23.2875C45.5396 23.401 45.3292 23.5016 44.9267 23.5016Z" fill="#406DA2" stroke="#406DA2"/>
<path id="Vector_14" d="M56.9264 29.5016H30.0464C29.8494 29.5016 29.6102 29.3978 29.4103 29.1975C29.2103 28.9972 29.1064 28.7575 29.1064 28.56C29.1064 28.3627 29.2101 28.124 29.4097 27.9246C29.6094 27.7252 29.8487 27.6216 30.0464 27.6216H57.1664C57.3639 27.6216 57.6031 27.7253 57.803 27.9251C57.9849 28.1068 58.087 28.3209 58.1039 28.5058C57.9983 28.8957 57.8602 29.1283 57.704 29.2674C57.5492 29.4052 57.3197 29.5016 56.9264 29.5016Z" fill="#406DA2" stroke="#406DA2"/>
<path id="Vector_15" d="M56.9264 35.5016H30.0464C29.8494 35.5016 29.6102 35.3978 29.4103 35.1975C29.2103 34.9972 29.1064 34.7575 29.1064 34.56C29.1064 34.3627 29.2101 34.124 29.4097 33.9246C29.6094 33.7252 29.8487 33.6216 30.0464 33.6216H57.1664C57.3639 33.6216 57.6031 33.7253 57.803 33.9251C57.9849 34.1068 58.087 34.3208 58.1039 34.5058C57.9983 34.8957 57.8602 35.1283 57.704 35.2674C57.5492 35.4052 57.3197 35.5016 56.9264 35.5016Z" fill="#406DA2" stroke="#406DA2"/>
<path id="Vector_16" d="M56.9264 41.5016H30.0464C29.8494 41.5016 29.6102 41.3978 29.4103 41.1975C29.2103 40.9972 29.1064 40.7575 29.1064 40.56C29.1064 40.3627 29.2101 40.124 29.4097 39.9246C29.6094 39.7252 29.8487 39.6216 30.0464 39.6216H57.1664C57.3639 39.6216 57.6031 39.7253 57.803 39.9251C57.9849 40.1068 58.087 40.3209 58.1039 40.5058C57.9983 40.8957 57.8602 41.1283 57.704 41.2674C57.5492 41.4052 57.3197 41.5016 56.9264 41.5016Z" fill="#406DA2" stroke="#406DA2"/>
<path id="Vector_17" d="M60.0464 88.0601C59.849 88.0601 59.6097 87.9563 59.4098 87.7566C59.2099 87.5568 59.1064 87.318 59.1064 87.1216V83.5216C59.1064 81.1032 57.2214 78.9416 54.5264 78.9416H37.0064C34.5897 78.9416 32.4264 80.8264 32.4264 83.5216V87.1216C32.4264 87.3189 32.3228 87.5576 32.1231 87.757C31.9234 87.9564 31.6841 88.0601 31.4864 88.0601C31.289 88.0601 31.0497 87.9563 30.8498 87.7566C30.6499 87.5568 30.5464 87.318 30.5464 87.1216V83.5216C30.5464 79.9561 33.4426 77.0601 37.0064 77.0601H54.5264C58.0902 77.0601 60.9864 79.9561 60.9864 83.5216V87.1216C60.9864 87.318 60.8829 87.5568 60.683 87.7566C60.4831 87.9563 60.2438 88.0601 60.0464 88.0601Z" fill="#406DA2" stroke="#406DA2"/>
<path id="Vector_18" d="M64.3664 88.06H19.4864C19.289 88.06 19.0497 87.9563 18.8498 87.7566C18.6499 87.5568 18.5464 87.3179 18.5464 87.1216C18.5464 86.9251 18.6501 86.6853 18.8503 86.4846C19.0505 86.284 19.2897 86.1801 19.4864 86.1801H64.6064C64.8034 86.1801 65.0426 86.2839 65.2426 86.4841C65.4426 86.6844 65.5464 86.9241 65.5464 87.1216C65.5464 87.5166 65.1018 88.06 64.3664 88.06Z" fill="#406DA2" stroke="#406DA2"/>
</g>
</g>
</g>
</g>
</g>
</svg>
