<svg width="103" height="103" viewBox="0 0 103 103" fill="none" xmlns="http://www.w3.org/2000/svg">
<path d="M1.34148 66.1747L1.36188 66.1679L1.38163 66.1594L18.6898 58.683L24.1782 56.5255C24.3686 56.4655 24.5827 56.4709 24.7517 56.5414C24.9076 56.6063 25.0394 56.73 25.0973 56.9634L25.1019 56.9821L25.108 57.0003C25.1719 57.1935 25.1678 57.4133 25.0959 57.5864C25.0308 57.7429 24.9071 57.8746 24.6749 57.9322L24.643 57.9402L24.6125 57.9522L19.1047 60.117L19.0976 60.1197L19.0906 60.1228L2.562 67.2101L2.25905 67.34V67.6697V95.8185V96.3185H2.75905H79.1069H79.6069V95.8185V67.8652V67.5317L79.2989 67.4035L57.0619 58.1514L57.0448 58.1443L57.0273 58.1385C56.8861 58.0916 56.7419 57.9596 56.6679 57.7817C56.5973 57.6124 56.6079 57.4488 56.6963 57.3166L56.7335 57.261L56.7548 57.1977C56.8029 57.0542 56.9359 56.9098 57.1131 56.8359C57.2818 56.7655 57.4445 56.776 57.5761 56.864L57.6171 56.8914L57.6626 56.9102L80.4703 66.3502C80.7551 66.4984 80.9659 66.7464 80.9659 67.078V97.3916C80.9659 97.5244 80.8943 97.6997 80.7428 97.8517C80.5913 98.0039 80.4173 98.0749 80.2864 98.0749H1.57696C1.44485 98.0749 1.2709 98.0037 1.11988 97.8523C0.968886 97.7008 0.897461 97.5259 0.897461 97.3929V66.8812C0.897461 66.6349 0.93932 66.4943 0.993325 66.4077C1.04085 66.3314 1.1297 66.2453 1.34148 66.1747Z" fill="#406DA2" stroke="#406DA2"/>
<path d="M13.1446 102.293C12.9989 102.293 12.8116 102.215 12.6508 102.054C12.4901 101.893 12.4121 101.705 12.4121 101.559V81.606C12.4121 81.4601 12.4901 81.2723 12.6512 81.1111C12.8124 80.9498 12.9997 80.8721 13.1446 80.8721C13.2914 80.8721 13.4795 80.9503 13.6407 81.1113C13.8019 81.2725 13.8799 81.4601 13.8799 81.606V101.559C13.8794 101.705 13.801 101.893 13.6401 102.054C13.479 102.215 13.2913 102.293 13.1446 102.293Z" fill="#406DA2" stroke="#406DA2"/>
<path d="M72.8921 101.559V101.64L72.9174 101.716C72.9484 101.81 72.9324 101.928 72.8061 102.054C72.676 102.184 72.4469 102.293 72.1569 102.293C72.0111 102.293 71.8238 102.215 71.663 102.054C71.5023 101.893 71.4243 101.705 71.4243 101.559V81.606C71.4243 81.4601 71.5023 81.2723 71.6634 81.1111C71.8246 80.9498 72.0119 80.8721 72.1569 80.8721C72.3028 80.8721 72.491 80.9501 72.6525 81.1115C72.8141 81.2728 72.8921 81.4605 72.8921 81.606V101.559Z" fill="#406DA2" stroke="#406DA2"/>
<path d="M26.0995 42.7291C22.6048 36.7653 20.5483 28.9494 20.5483 22.5716C20.5483 20.5151 20.9583 18.253 21.5766 16.4008C21.7809 15.7839 22.6048 15.3726 23.2204 15.5796C23.8373 15.7839 24.2486 16.6078 24.043 17.2248M26.0995 42.7291C30.6224 50.3394 36.5861 54.4537 42.9598 54.4537C49.5392 54.4537 55.5016 50.3408 60.2315 42.9348M26.0995 42.7291L26.5293 42.4737C26.5296 42.4741 26.5298 42.4746 26.5301 42.475M26.0995 42.7291L26.5309 42.4763C26.5306 42.4759 26.5303 42.4754 26.5301 42.475M60.2315 42.9348C63.5219 36.764 65.7826 28.948 65.7826 22.7773V22.7771C65.7826 20.9251 65.7826 20.5137 65.3713 18.8686C65.3713 18.0447 64.5501 17.6361 63.9332 17.8404C63.1106 17.8404 62.6993 18.6643 62.9036 19.2813C63.1106 20.7221 63.1106 20.9264 63.1106 22.7786C63.1106 28.5381 61.0541 35.9428 57.7637 41.4966C54.8847 46.2265 50.1561 51.9859 43.1641 51.9859C35.9692 51.9859 31.2393 46.2278 28.5672 41.4966M60.2315 42.9348L59.7903 42.6995C59.7934 42.6937 59.7965 42.6879 59.7996 42.6821M60.2315 42.9348L59.8101 42.6656C59.8066 42.6711 59.8031 42.6766 59.7996 42.6821M28.5672 41.4966C25.2755 35.9414 23.2204 28.5381 23.2204 22.7786C23.2204 20.9264 23.4247 19.0743 24.043 17.2248M28.5672 41.4966L28.1371 41.7515C28.1362 41.75 28.1353 41.7485 28.1344 41.747M28.5672 41.4966L28.1319 41.7425C28.1327 41.744 28.1336 41.7455 28.1344 41.747M24.043 17.2248L23.5687 17.0667C22.9287 18.9811 22.7204 20.8897 22.7204 22.7786C22.7204 28.6321 24.8017 36.1204 28.1344 41.747M24.043 17.2248L23.5688 17.0663C23.5688 17.0664 23.5687 17.0665 23.5687 17.0666C23.62 16.9124 23.6028 16.6909 23.4929 16.471C23.383 16.251 23.2166 16.105 23.0632 16.0543L23.061 16.0535C22.908 16.0021 22.6874 16.0188 22.4677 16.1286C22.248 16.2383 22.102 16.4046 22.0512 16.558L22.0509 16.5592C21.4479 18.3654 21.0483 20.5741 21.0483 22.5716C21.0483 28.8597 23.0806 36.5878 26.5301 42.475M26.5301 42.475C31.0005 49.9963 36.8259 53.9537 42.9598 53.9537C49.3004 53.9537 55.1231 49.9968 59.7996 42.6821M59.7996 42.6821C63.0556 36.569 65.2826 28.8424 65.2826 22.7773C65.2826 21.8431 65.2821 21.3039 65.2335 20.7927C65.1856 20.2897 65.0898 19.8039 64.8863 18.9899L64.8713 18.9302V18.8686C64.8713 18.6417 64.7657 18.4864 64.6153 18.3908C64.4514 18.2866 64.2473 18.263 64.0903 18.315L64.0138 18.3404H63.9332C63.7077 18.3404 63.5518 18.446 63.4551 18.5979C63.35 18.7631 63.3265 18.9679 63.3782 19.1241L63.3922 19.1662L63.3985 19.2102C63.6102 20.6837 63.6106 20.9141 63.6106 22.7786C63.6106 28.6337 61.5269 36.1257 58.1939 41.7514L58.1909 41.7566L58.1908 41.7566C55.3073 46.4937 50.4491 52.4859 43.1641 52.4859C35.6793 52.4859 30.8218 46.5036 28.1344 41.747" fill="#406DA2" stroke="#406DA2"/>
<path d="M48.2508 78.7869L48.2436 78.7796L48.2362 78.7727L42.0742 73.0202C41.9504 72.8931 41.8433 72.6847 41.8081 72.4739C41.7717 72.2554 41.8247 72.137 41.8742 72.0876L41.9028 72.0591L41.9265 72.0264L54.2377 54.99C54.299 54.9349 54.398 54.8668 54.5467 54.7677C54.5535 54.7632 54.5606 54.7585 54.5677 54.7537C54.6548 54.6958 54.7626 54.6242 54.8651 54.5441C54.9829 54.5471 55.0661 54.555 55.1346 54.5746C55.1756 54.5863 55.1978 54.5992 55.2114 54.6098C55.2236 54.6194 55.2422 54.6373 55.2629 54.6785L55.3043 54.7607L55.3723 54.8228L60.0921 59.1362C60.2375 59.2834 60.3289 59.4497 60.3582 59.6099C60.386 59.7616 60.3648 59.9392 60.2291 60.1428L60.2231 60.1517L60.2176 60.1609L49.114 78.4662L48.9945 78.6632L49.0666 78.8821C49.085 78.9379 49.0915 78.9755 49.0935 78.9982C49.0782 79.0048 49.0547 79.0131 49.0204 79.0212C48.9473 79.0385 48.8469 79.0494 48.7175 79.0494C48.6036 79.0494 48.5376 79.0236 48.4852 78.9923C48.4188 78.9526 48.3574 78.895 48.2508 78.7869ZM43.9936 72.0577L43.7379 72.4119L44.0545 72.7128L48.1661 76.6215L48.6175 77.0506L48.9388 76.5171L58.6043 60.4712L58.8213 60.1109L58.5035 59.8354L55.4202 57.162L55.0072 56.8039L54.6872 57.2471L43.9936 72.0577Z" fill="#406DA2" stroke="#406DA2"/>
<path d="M35.5138 79.9395C35.4804 79.9156 35.4563 79.8935 35.4404 79.8763V79.8339L35.3799 79.7224L24.9139 60.4281C24.7492 59.9047 24.8076 59.5493 25.0031 59.3443L29.9228 55.0383L29.9366 55.0263L29.9494 55.0133C29.9974 54.9647 30.0936 54.8954 30.2265 54.8386C30.3569 54.7829 30.496 54.7508 30.6218 54.7508C30.7349 54.7508 30.7733 54.7754 30.7982 54.7952C30.8408 54.8293 30.9043 54.905 30.9969 55.0908L31.016 55.1292L31.0414 55.1638L43.5832 72.2365L43.6057 72.2672L43.6326 72.2941C43.833 72.4945 43.8433 72.944 43.5047 73.1695L43.4634 73.1971L43.4282 73.2322L36.7756 79.8875C36.5809 79.9096 36.4041 79.9565 36.2692 79.9946C36.2293 80.0059 36.1953 80.0158 36.1648 80.0247C36.1151 80.0392 36.0746 80.051 36.0328 80.0618C35.9838 80.0745 35.9636 80.0772 35.9619 80.0777C35.7688 80.0762 35.6145 80.0114 35.5138 79.9395ZM35.4186 79.8496C35.4161 79.8458 35.4151 79.844 35.4153 79.844C35.4155 79.844 35.4167 79.8459 35.4186 79.8496ZM26.579 59.8477L26.2948 60.1129L26.4818 60.4537L35.7345 77.3208L36.0552 77.9053L36.5265 77.4339L41.2564 72.7026L41.5581 72.4008L41.3074 72.0554L30.4095 57.0405L30.0772 56.5827L29.6637 56.9686L26.579 59.8477Z" fill="#406DA2" stroke="#406DA2"/>
<path d="M42.1723 101.952L42.1645 101.936L42.1557 101.922L18.9203 62.6348L18.9137 62.6237L18.9066 62.613C18.6636 62.2464 18.7697 61.7265 19.1788 61.453C19.5394 61.2128 20.0529 61.3141 20.3289 61.7153L43.3505 100.988L43.3576 101L43.3654 101.012C43.6079 101.377 43.5021 101.898 43.0928 102.172L43.0518 102.199L43.017 102.234C42.9796 102.271 42.9575 102.278 42.9408 102.282C42.9074 102.291 42.8662 102.293 42.7549 102.293C42.5047 102.293 42.2825 102.172 42.1723 101.952Z" fill="#406DA2" stroke="#406DA2"/>
<path d="M42.4881 102.233L42.454 102.199L42.4142 102.173C42.0046 101.9 41.8991 101.379 42.142 101.013L42.15 101.001L42.1574 100.989L64.9732 61.9204C65.2481 61.5201 65.7601 61.4184 66.1238 61.6592C66.5329 61.9324 66.6379 62.4525 66.3945 62.8176L66.3868 62.8292L66.3797 62.8412L43.3526 101.924L43.3444 101.938L43.3371 101.952C43.2265 102.171 43.0031 102.293 42.7552 102.293C42.6423 102.293 42.6005 102.291 42.5665 102.282C42.5493 102.278 42.5266 102.271 42.4881 102.233Z" fill="#406DA2" stroke="#406DA2"/>
<mask id="path-9-inside-1_99_1088" fill="white">
<path d="M63.7271 20.3095C63.5229 20.3095 63.3159 20.3095 63.1102 20.1025L55.7083 16.4008C55.297 17.0178 54.68 17.6361 54.0617 18.046C53.0335 18.8699 51.5967 19.0742 50.3614 19.0742H26.9203C25.2765 19.0742 23.6313 18.6643 22.1918 17.8404C19.3127 16.1952 17.4619 12.9035 17.4619 9.61311V1.38586C17.4619 0.768918 18.0802 0.151978 18.6971 0.151978H49.5388C52.2136 0.151978 54.68 1.59016 55.9126 3.85363C56.1195 4.05792 56.3238 4.47057 56.3238 4.67486L64.5497 12.0809C64.754 12.2852 64.961 12.6978 64.961 13.1091L64.754 19.0729C64.754 19.4842 64.5497 19.8968 64.1371 20.1011C64.3427 20.1025 64.1384 20.3095 63.7271 20.3095ZM55.297 13.5218C55.5013 13.5218 55.7083 13.5218 55.9139 13.7261L62.7003 17.0164V13.7261L54.6814 6.52704C54.4744 6.32275 54.4744 6.11575 54.2701 5.9101C54.2701 5.7031 54.0631 5.49881 54.0631 5.49881L53.8588 5.29451C53.0362 3.85363 51.391 2.82539 49.5402 2.82539H19.9297V9.61311C19.9297 12.0822 21.3692 14.3444 23.4243 15.7839C24.4526 16.4008 25.6865 16.8121 26.919 16.8121H50.3601C51.1827 16.8121 52.0039 16.6078 52.6222 16.1952C53.2391 15.7839 53.8547 15.1669 54.059 14.343C54.2687 13.7274 54.8857 13.5218 55.297 13.5218Z"/>
</mask>
<path d="M63.7271 20.3095C63.5229 20.3095 63.3159 20.3095 63.1102 20.1025L55.7083 16.4008C55.297 17.0178 54.68 17.6361 54.0617 18.046C53.0335 18.8699 51.5967 19.0742 50.3614 19.0742H26.9203C25.2765 19.0742 23.6313 18.6643 22.1918 17.8404C19.3127 16.1952 17.4619 12.9035 17.4619 9.61311V1.38586C17.4619 0.768918 18.0802 0.151978 18.6971 0.151978H49.5388C52.2136 0.151978 54.68 1.59016 55.9126 3.85363C56.1195 4.05792 56.3238 4.47057 56.3238 4.67486L64.5497 12.0809C64.754 12.2852 64.961 12.6978 64.961 13.1091L64.754 19.0729C64.754 19.4842 64.5497 19.8968 64.1371 20.1011C64.3427 20.1025 64.1384 20.3095 63.7271 20.3095ZM55.297 13.5218C55.5013 13.5218 55.7083 13.5218 55.9139 13.7261L62.7003 17.0164V13.7261L54.6814 6.52704C54.4744 6.32275 54.4744 6.11575 54.2701 5.9101C54.2701 5.7031 54.0631 5.49881 54.0631 5.49881L53.8588 5.29451C53.0362 3.85363 51.391 2.82539 49.5402 2.82539H19.9297V9.61311C19.9297 12.0822 21.3692 14.3444 23.4243 15.7839C24.4526 16.4008 25.6865 16.8121 26.919 16.8121H50.3601C51.1827 16.8121 52.0039 16.6078 52.6222 16.1952C53.2391 15.7839 53.8547 15.1669 54.059 14.343C54.2687 13.7274 54.8857 13.5218 55.297 13.5218Z" fill="#406DA2"/>
<path d="M63.1102 20.1025L63.8196 19.3977L63.7041 19.2814L63.5575 19.2081L63.1102 20.1025ZM55.7083 16.4008L56.1555 15.5064L55.3659 15.1115L54.8762 15.8461L55.7083 16.4008ZM54.0617 18.046L53.5091 17.2125L53.4716 17.2375L53.4364 17.2656L54.0617 18.046ZM22.1918 17.8404L22.6886 16.9725L22.6879 16.9721L22.1918 17.8404ZM55.9126 3.85363L55.0343 4.33186L55.105 4.4616L55.2101 4.56537L55.9126 3.85363ZM56.3238 4.67486H55.3238V5.12012L55.6547 5.41804L56.3238 4.67486ZM64.5497 12.0809L65.2568 11.3738L65.2383 11.3552L65.2188 11.3377L64.5497 12.0809ZM64.961 13.1091L65.9604 13.1438L65.961 13.1265V13.1091H64.961ZM64.754 19.0729L63.7546 19.0382L63.754 19.0555V19.0729H64.754ZM64.1371 20.1011L63.6934 19.2049L64.1305 21.1011L64.1371 20.1011ZM55.9139 13.7261L55.2091 14.4355L55.3275 14.5531L55.4776 14.6259L55.9139 13.7261ZM62.7003 17.0164L62.264 17.9162L63.7003 18.6126V17.0164H62.7003ZM62.7003 13.7261H63.7003V13.28L63.3683 12.9819L62.7003 13.7261ZM54.6814 6.52704L53.9789 7.23879L53.9958 7.25538L54.0133 7.27117L54.6814 6.52704ZM54.2701 5.9101H53.2701V6.32239L53.5606 6.61487L54.2701 5.9101ZM54.0631 5.49881L53.356 6.20593L53.3606 6.21055L54.0631 5.49881ZM53.8588 5.29451L52.9903 5.7903L53.0568 5.90678L53.1517 6.00162L53.8588 5.29451ZM19.9297 2.82539V1.82539H18.9297V2.82539H19.9297ZM23.4243 15.7839L22.8506 16.6029L22.8795 16.6232L22.9098 16.6414L23.4243 15.7839ZM52.6222 16.1952L52.0675 15.3631L52.0671 15.3634L52.6222 16.1952ZM54.059 14.343L53.1124 14.0205L53.0987 14.0609L53.0884 14.1023L54.059 14.343ZM63.7271 19.3095C63.7003 19.3095 63.6826 19.3095 63.6662 19.3092C63.6507 19.3089 63.6416 19.3085 63.6363 19.3082C63.6259 19.3076 63.6383 19.3076 63.6628 19.3137C63.6897 19.3205 63.7229 19.3325 63.7566 19.3515C63.7899 19.3704 63.8108 19.3888 63.8196 19.3977L62.4008 20.8073C62.9176 21.3275 63.5078 21.3095 63.7271 21.3095V19.3095ZM63.5575 19.2081L56.1555 15.5064L55.261 17.2952L62.6629 20.9969L63.5575 19.2081ZM54.8762 15.8461C54.5377 16.3539 54.0153 16.877 53.5091 17.2125L54.6143 18.8794C55.3448 18.3951 56.0563 17.6816 56.5403 16.9555L54.8762 15.8461ZM53.4364 17.2656C52.6818 17.8703 51.5347 18.0742 50.3614 18.0742V20.0742C51.6587 20.0742 53.3852 19.8696 54.687 18.8264L53.4364 17.2656ZM50.3614 18.0742H26.9203V20.0742H50.3614V18.0742ZM26.9203 18.0742C25.4403 18.0742 23.968 17.7048 22.6886 16.9725L21.695 18.7082C23.2947 19.6238 25.1128 20.0742 26.9203 20.0742V18.0742ZM22.6879 16.9721C20.1295 15.5101 18.4619 12.5551 18.4619 9.61311H16.4619C16.4619 13.2518 18.496 16.8802 21.6957 18.7086L22.6879 16.9721ZM18.4619 9.61311V1.38586H16.4619V9.61311H18.4619ZM18.4619 1.38586C18.4619 1.39846 18.4591 1.38822 18.474 1.35633C18.489 1.32439 18.5157 1.2842 18.5548 1.24519C18.5938 1.20618 18.6342 1.17938 18.6665 1.16434C18.6987 1.14931 18.7093 1.15198 18.6971 1.15198V-0.848022C18.0637 -0.848022 17.5135 -0.541447 17.1416 -0.170057C16.7697 0.201314 16.4619 0.751436 16.4619 1.38586H18.4619ZM18.6971 1.15198H49.5388V-0.848022H18.6971V1.15198ZM49.5388 1.15198C51.8622 1.15198 53.9839 2.40274 55.0343 4.33186L56.7908 3.3754C55.3762 0.777571 52.5651 -0.848022 49.5388 -0.848022V1.15198ZM55.2101 4.56537C55.2045 4.55988 55.216 4.57062 55.2386 4.60371C55.2597 4.63456 55.2817 4.67206 55.301 4.71068C55.3208 4.75036 55.3316 4.77901 55.3355 4.79133C55.3372 4.79696 55.3353 4.7921 55.3326 4.77766C55.3302 4.76516 55.3238 4.72881 55.3238 4.67486H57.3238C57.3238 4.33086 57.1831 4.00317 57.0906 3.81782C56.9828 3.60158 56.8213 3.34546 56.615 3.14189L55.2101 4.56537ZM55.6547 5.41804L63.8806 12.824L65.2188 11.3377L56.9929 3.93169L55.6547 5.41804ZM63.8426 12.788C63.8368 12.7821 63.8455 12.79 63.8625 12.816C63.8785 12.8406 63.8966 12.8733 63.913 12.9117C63.9482 12.9937 63.961 13.0652 63.961 13.1091H65.961C65.961 12.4146 65.6356 11.7525 65.2568 11.3738L63.8426 12.788ZM63.9616 13.0744L63.7546 19.0382L65.7534 19.1076L65.9604 13.1438L63.9616 13.0744ZM63.754 19.0729C63.754 19.1157 63.743 19.1493 63.7315 19.1695C63.7225 19.1852 63.7126 19.1955 63.6934 19.2049L64.5808 20.9973C65.3853 20.599 65.754 19.8037 65.754 19.0729H63.754ZM64.1305 21.1011C64.0909 21.1008 63.9578 21.0977 63.796 21.0273C63.6211 20.9511 63.3059 20.737 63.2318 20.3023C63.1672 19.9227 63.3404 19.6552 63.4066 19.5671C63.4863 19.461 63.5673 19.4017 63.6033 19.3774C63.7349 19.2884 63.7922 19.3095 63.7271 19.3095V21.3095C64.0734 21.3095 64.4385 21.227 64.7236 21.0342C64.798 20.9839 64.9078 20.8987 65.0058 20.7682C65.0903 20.6556 65.2715 20.3654 65.2034 19.9662C65.126 19.5119 64.7963 19.2814 64.5947 19.1937C64.4064 19.1116 64.2347 19.1017 64.1437 19.1011L64.1305 21.1011ZM55.297 14.5218C55.3238 14.5218 55.3416 14.5218 55.3581 14.522C55.3738 14.5223 55.3831 14.5227 55.3886 14.523C55.3996 14.5237 55.388 14.5238 55.3643 14.5179C55.3383 14.5115 55.3057 14.4999 55.2724 14.4813C55.2394 14.4629 55.2184 14.4447 55.2091 14.4355L56.6187 13.0166C56.1019 12.5033 55.5144 12.5218 55.297 12.5218V14.5218ZM55.4776 14.6259L62.264 17.9162L63.1365 16.1166L56.3502 12.8262L55.4776 14.6259ZM63.7003 17.0164V13.7261H61.7003V17.0164H63.7003ZM63.3683 12.9819L55.3494 5.78292L54.0133 7.27117L62.0322 14.4702L63.3683 12.9819ZM55.3838 5.8153C55.4094 5.8405 55.4195 5.87266 55.3694 5.77245C55.3194 5.67223 55.2074 5.43469 54.9795 5.20533L53.5606 6.61487C53.5371 6.59116 53.5272 6.55995 53.58 6.66571C53.6328 6.77148 53.7464 7.00929 53.9789 7.23879L55.3838 5.8153ZM55.2701 5.9101C55.2701 5.50467 55.0825 5.19688 54.9964 5.06877C54.9426 4.98873 54.8902 4.92412 54.851 4.87895C54.831 4.85584 54.8132 4.83645 54.7988 4.82121C54.7916 4.81356 54.7851 4.80686 54.7796 4.80118C54.7768 4.79833 54.7742 4.79573 54.7719 4.79338C54.7707 4.7922 54.7696 4.79109 54.7685 4.79003C54.768 4.78951 54.7675 4.789 54.767 4.7885C54.7667 4.78826 54.7665 4.78801 54.7662 4.78777C54.7661 4.78765 54.7659 4.78748 54.7659 4.78742C54.7657 4.78724 54.7655 4.78707 54.0631 5.49881C53.3606 6.21055 53.3605 6.21038 53.3603 6.2102C53.3602 6.21015 53.3601 6.20997 53.3599 6.20986C53.3597 6.20963 53.3595 6.20941 53.3593 6.20919C53.3588 6.20874 53.3584 6.20831 53.3579 6.20788C53.3571 6.20703 53.3563 6.20621 53.3555 6.20542C53.3539 6.20386 53.3525 6.20243 53.3512 6.20113C53.3487 6.19854 53.3467 6.19643 53.3451 6.19477C53.342 6.19152 53.3404 6.1897 53.3398 6.18897C53.3395 6.18858 53.3389 6.18798 53.3368 6.18489C53.3358 6.1834 53.3237 6.16576 53.3099 6.13158C53.2969 6.09926 53.2701 6.0216 53.2701 5.9101H55.2701ZM54.7702 4.7917L54.5659 4.58741L53.1517 6.00162L53.356 6.20591L54.7702 4.7917ZM54.7272 4.79872C53.73 3.05192 51.7567 1.82539 49.5402 1.82539V3.82539C51.0253 3.82539 52.3424 4.65533 52.9903 5.7903L54.7272 4.79872ZM49.5402 1.82539H19.9297V3.82539H49.5402V1.82539ZM18.9297 2.82539V9.61311H20.9297V2.82539H18.9297ZM18.9297 9.61311C18.9297 12.4793 20.5922 15.021 22.8506 16.6029L23.998 14.9648C22.1463 13.6677 20.9297 11.6852 20.9297 9.61311H18.9297ZM22.9098 16.6414C24.0621 17.3327 25.4718 17.8121 26.919 17.8121V15.8121C25.9011 15.8121 24.843 15.4689 23.9388 14.9264L22.9098 16.6414ZM26.919 17.8121H50.3601V15.8121H26.919V17.8121ZM50.3601 17.8121C51.3303 17.8121 52.3575 17.5741 53.1773 17.0269L52.0671 15.3634C51.6503 15.6416 51.035 15.8121 50.3601 15.8121V17.8121ZM53.1769 17.0272C53.8956 16.5481 54.7405 15.7498 55.0296 14.5837L53.0884 14.1023C52.969 14.5841 52.5826 15.0197 52.0675 15.3631L53.1769 17.0272ZM55.0056 14.6655C55.0141 14.6404 55.0235 14.6272 55.0317 14.618C55.0413 14.6072 55.0581 14.5923 55.0867 14.5764C55.1162 14.5601 55.1535 14.5455 55.1956 14.5352C55.2382 14.5249 55.2747 14.5218 55.297 14.5218V12.5218C54.6621 12.5218 53.5162 12.8352 53.1124 14.0205L55.0056 14.6655Z" fill="#406DA2" mask="url(#path-9-inside-1_99_1088)"/>
<path d="M44.9574 27.2458L45.04 27.1633L45.0774 27.0517C45.264 26.4941 45.4432 26.1277 45.8141 25.5643C46.3431 25.0503 47.0308 24.7168 47.8936 24.7168H51.8009C53.3945 24.7168 54.7955 25.9524 54.7955 27.7142C54.7955 28.3668 54.4709 29.0705 53.8889 29.8543C53.3596 30.3729 52.6686 30.7115 51.8009 30.7115H47.8936C46.3193 30.7115 44.8989 29.2906 44.8989 27.7142C44.8989 27.6092 44.8998 27.4936 44.9177 27.3852C44.9353 27.2795 44.9593 27.2453 44.9586 27.2448C44.9585 27.2448 44.9581 27.2451 44.9574 27.2458ZM52.4403 28.8297H52.623L52.769 28.6856C53.1254 28.3339 53.1251 27.9456 53.1248 27.7283C53.1248 27.7231 53.1248 27.7179 53.1248 27.7128C53.1248 27.284 52.976 26.9262 52.6874 26.6863C52.415 26.4599 52.0815 26.3916 51.8022 26.3916H51.8021L47.8949 26.3929C47.8949 26.3929 47.8948 26.3929 47.8948 26.3929C47.8898 26.3929 47.8846 26.3929 47.8794 26.3929C47.665 26.3927 47.2781 26.3923 46.9256 26.7425L47.278 27.0972L46.9268 26.7413C46.9245 26.7436 46.9222 26.7458 46.9199 26.7481C46.8742 26.7933 46.8269 26.8399 46.7887 26.8819C46.7475 26.9271 46.6931 26.9919 46.6502 27.0771C46.5677 27.2412 46.5698 27.4114 46.5708 27.489C46.5709 27.4964 46.571 27.5029 46.571 27.5085V27.7128C46.571 28.0809 46.7499 28.4075 46.9741 28.6322C47.1983 28.8568 47.5248 29.0367 47.8936 29.0367H51.8009C51.9348 29.0367 52.0492 29.0032 52.1313 28.9721C52.2075 28.9433 52.2792 28.9072 52.3262 28.8836L52.3333 28.88C52.3894 28.8518 52.4171 28.8385 52.4397 28.83C52.4399 28.8299 52.4401 28.8298 52.4403 28.8297Z" fill="#406DA2" stroke="#406DA2"/>
<path d="M36.9967 30.7115H33.0894C31.4958 30.7115 30.0947 29.4759 30.0947 27.7142C30.0947 26.833 30.4426 26.135 30.9769 25.5982C31.5103 25.065 32.2092 24.7168 33.0907 24.7168H36.998C38.5916 24.7168 39.9927 25.9524 39.9927 27.7142C39.9927 28.3667 39.6681 29.0704 39.0862 29.8541C38.5554 30.373 37.8643 30.7115 36.9967 30.7115ZM33.0894 26.3929C33.0843 26.3929 33.0792 26.3929 33.0739 26.3929C32.8597 26.3927 32.4734 26.3923 32.1212 26.7413C31.7648 27.0931 31.7652 27.4828 31.7654 27.6986C31.7654 27.7039 31.7654 27.7091 31.7654 27.7142C31.7654 28.0822 31.9444 28.4089 32.1686 28.6335C32.3927 28.8582 32.7192 29.0381 33.088 29.0381H36.9953C37.0002 29.0381 37.0052 29.0381 37.0103 29.0381C37.2255 29.0383 37.6137 29.0387 37.9664 28.6841C38.3172 28.3328 38.3168 27.9464 38.3166 27.7302C38.3166 27.7247 38.3166 27.7194 38.3166 27.7142C38.3166 27.286 38.1685 26.9281 37.8802 26.688C37.608 26.4613 37.2746 26.3929 36.9953 26.3929H33.0894Z" fill="#406DA2" stroke="#406DA2"/>
<path d="M39.8563 28.0911L39.8287 28.105L39.803 28.1221C39.6573 28.2193 39.4782 28.2297 39.2961 28.1538C39.1055 28.0743 38.9626 27.9193 38.9112 27.764L38.8901 27.7002L38.8529 27.6443C38.7553 27.4976 38.745 27.3178 38.8211 27.1351C38.9006 26.9439 39.0562 26.7998 39.2125 26.7473L39.2458 26.7362L39.2771 26.7205C41.5989 25.5597 44.1111 25.5521 46.6572 26.7273L46.6819 26.7387L46.7077 26.7473C46.8644 26.7999 47.0198 26.9439 47.0992 27.1347C47.1627 27.2871 47.1661 27.438 47.1082 27.5697C46.5523 27.9311 46.2747 28.0381 46.0428 28.0381H46.0416H46.0404H46.0392H46.038H46.0368H46.0356H46.0344H46.0332H46.032H46.0308H46.0296H46.0284H46.0272H46.026H46.0248H46.0236H46.0225H46.0213H46.0201H46.0189H46.0177H46.0165H46.0153H46.0141H46.0129H46.0117H46.0105H46.0093H46.0081H46.0069H46.0057H46.0045H46.0033H46.0021H46.0009H45.9997H45.9985H45.9974H45.9962H45.995H45.9938H45.9926H45.9914H45.9902H45.989H45.9878H45.9866H45.9854H45.9843H45.9831H45.9819H45.9807H45.9795H45.9783H45.9771H45.9759H45.9748H45.9736H45.9724H45.9712H45.97H45.9688H45.9677H45.9665H45.9653H45.9641H45.9629H45.9618H45.9606H45.9594H45.9582H45.957H45.9559H45.9547H45.9535H45.9523H45.9512H45.95H45.9488H45.9476H45.9465H45.9453H45.9441H45.943H45.9418H45.9406H45.9395H45.9383H45.9371H45.936H45.9348H45.9336H45.9325H45.9313H45.9301H45.929H45.9278H45.9267H45.9255H45.9244H45.9232H45.922H45.9209H45.9197H45.9186H45.9174H45.9163H45.9151H45.914H45.9128H45.9117H45.9105H45.9094H45.9083H45.9071H45.906H45.9048H45.9037H45.9025H45.9014H45.9003H45.8991H45.898H45.8969H45.8957H45.8946H45.8935H45.8923H45.8912H45.8901H45.889H45.8878H45.8867H45.8856H45.8845H45.8834H45.8822H45.8811H45.88H45.8789H45.8778H45.8767H45.8756H45.8745H45.8733H45.8722H45.8711H45.87H45.8689H45.8678H45.8667H45.8656H45.8645H45.8634H45.8623H45.8612H45.8601H45.8591H45.858H45.8569H45.8558H45.8547H45.8536H45.8525H45.8515H45.8504H45.8493H45.8482H45.8472H45.8461H45.845H45.8439H45.8429H45.8418H45.8407H45.8397H45.8386H45.8376H45.8365H45.8354H45.8344H45.8333H45.8323H45.8312H45.8302H45.8291H45.8281H45.827H45.826H45.825H45.8239H45.8229H45.8219H45.8208H45.8198H45.8188H45.8177H45.8167H45.8157H45.8147H45.8136H45.8126H45.8116H45.8106H45.8096H45.8086H45.8075H45.8065H45.8055H45.8045H45.8035H45.8025H45.8015H45.8005H45.7995H45.7985H45.7976H45.7966H45.7956H45.7946H45.7936H45.7926H45.7916H45.7907H45.7897H45.7887H45.7878H45.7868H45.7858H45.7849H45.7839H45.7829H45.782H45.781H45.7801H45.7791H45.7782H45.7772H45.7763H45.7753H45.7744H45.7734H45.7725H45.7716H45.7706H45.7697H45.7688H45.7679H45.7669H45.766H45.7651H45.7642H45.7633H45.7624H45.7615H45.7605H45.7596H45.7587H45.7578H45.7569H45.756H45.7552H45.7543H45.7534H45.7525H45.7516H45.7507H45.7498H45.749H45.7481H45.7472H45.7464H45.7455H45.7446H45.7438H45.7429H45.7421H45.7412H45.7403H45.7395H45.7387H45.7378H45.737H45.7361H45.7353H45.7345H45.7336H45.7328H45.732H45.7312H45.7303H45.7295H45.7287H45.7279H45.7271H45.7268C43.6017 27.2084 41.6289 27.2027 39.8563 28.0911Z" fill="#406DA2" stroke="#406DA2"/>
<path d="M41.1087 12.1979H25.6879C25.5419 12.1979 25.3538 12.1198 25.1922 11.9585C25.0306 11.7971 24.9526 11.6095 24.9526 11.464C24.9526 11.3176 25.0309 11.1296 25.1923 10.9682C25.3538 10.8068 25.5419 10.7288 25.6879 10.7288H41.1087C41.2547 10.7288 41.4427 10.8068 41.6043 10.9682C41.7657 11.1296 41.844 11.3176 41.844 11.464C41.844 11.6103 41.7658 11.7979 41.6045 11.9589C41.4432 12.1199 41.255 12.1979 41.1087 12.1979Z" fill="#406DA2" stroke="#406DA2"/>
<path d="M43.3133 79.6987L46.8078 76.2015L46.808 76.2013C46.8953 76.114 47.0622 76.0394 47.3031 76.0394C47.523 76.0394 47.7662 76.1035 47.9802 76.2336C48.0547 76.3269 48.1136 76.4823 48.1136 76.696C48.1136 76.9187 48.0477 77.1654 47.9138 77.3816L43.4904 81.8076C43.2152 81.9264 42.94 81.93 42.7553 81.93C42.6428 81.93 42.5768 81.9041 42.5238 81.8723C42.4562 81.8317 42.3949 81.7737 42.2864 81.6652C42.2864 81.6652 42.2863 81.6652 42.2863 81.6651L37.9678 77.3439L37.9678 77.3439L37.9671 77.3432C37.8804 77.2568 37.8057 77.0907 37.8057 76.8498C37.8057 76.63 37.8698 76.3868 37.9998 76.1728C38.0931 76.0984 38.2487 76.0394 38.4629 76.0394C38.686 76.0394 38.9329 76.1053 39.149 76.2391L42.6059 79.6987L42.9596 80.0526L43.3133 79.6987Z" fill="#406DA2" stroke="#406DA2"/>
<path d="M46.9283 93.1729L46.9217 93.153L46.9134 93.1338L43.0061 84.0826L42.5523 83.0315L42.0896 84.0787L38.1823 92.9229L38.1648 92.9625L38.1544 93.0046C38.0922 93.2554 37.9492 93.3903 37.7797 93.461C37.5937 93.5385 37.3588 93.5425 37.1534 93.4743L37.153 93.4742C36.9981 93.4229 36.843 93.2799 36.7634 93.0888C36.6873 92.9062 36.6978 92.7268 36.795 92.5811L36.8184 92.546L36.8356 92.5074L41.9707 80.9977C42.1241 80.6956 42.3928 80.4622 42.754 80.4622C42.8183 80.4622 42.9771 80.5066 43.1702 80.6352C43.3508 80.7555 43.4791 80.895 43.5332 80.9951L48.4518 92.6828C48.5155 92.885 48.5139 93.1264 48.4469 93.3271C48.3903 93.4968 48.3021 93.6005 48.205 93.6532H48.2044H48.2032H48.202H48.2008H48.1996H48.1984H48.1972H48.196H48.1948H48.1936H48.1924H48.1912H48.19H48.1888H48.1876H48.1865H48.1853H48.1841H48.1829H48.1817H48.1805H48.1793H48.1781H48.1769H48.1757H48.1745H48.1733H48.1721H48.1709H48.1697H48.1685H48.1673H48.1661H48.1649H48.1637H48.1625H48.1613H48.1601H48.1589H48.1577H48.1565H48.1553H48.1541H48.1529H48.1517H48.1505H48.1493H48.1481H48.1469H48.1457H48.1445H48.1433H48.1421H48.141H48.1398H48.1386H48.1374H48.1362H48.135H48.1338H48.1326H48.1314H48.1302H48.129H48.1278H48.1266H48.1254H48.1242H48.123H48.1218H48.1206H48.1194H48.1182H48.117H48.1158H48.1146H48.1134H48.1122H48.111H48.1098H48.1086H48.1074H48.1062H48.105H48.1038H48.1026H48.1014H48.1002H48.099H48.0978H48.0966H48.0954H48.0942H48.093H48.0918H48.0906H48.0894H48.0882H48.087H48.0859H48.0847H48.0835H48.0823H48.0811H48.0799H48.0787H48.0775H48.0763H48.0751H48.0739H48.0727H48.0715H48.0703H48.0691H48.0679H48.0667H48.0655H48.0643H48.0631H48.0619H48.0607H48.0595H48.0583H48.0571H48.0559H48.0547H48.0535H48.0523H48.0511H48.0499H48.0487H48.0475H48.0463H48.0451H48.0439H48.0427H48.0415H48.0403H48.0391H48.0379H48.0367H48.0355H48.0343H48.0331H48.0319H48.0307H48.0295H48.0283H48.0271H48.0259H48.0247H48.0235H48.0223H48.0211H48.0199H48.0187H48.0175H48.0163H48.0151H48.0139H48.0127H48.0116H48.0104H48.0092H48.008H48.0068H48.0056H48.0044H48.0032H48.002H48.0008H47.9996H47.9984H47.9972H47.996H47.9948H47.9936H47.9924H47.9912H47.99H47.9888H47.9876H47.9864H47.9852H47.984H47.9828H47.9816H47.9804H47.9792H47.978H47.9768H47.9756H47.9744H47.9732H47.972H47.9708H47.9696H47.9684H47.9672H47.966H47.9648H47.9636H47.9624H47.9612H47.96H47.9588H47.9576H47.9564H47.9552H47.954H47.9528H47.9516H47.9504H47.9492H47.948H47.9468H47.9456H47.9444H47.9432H47.942H47.9408H47.9396H47.9384H47.9372H47.936H47.9348H47.9336H47.9324H47.9312H47.93H47.9288H47.9276H47.9264H47.9252H47.924H47.9228H47.9216H47.9204H47.9192H47.918H47.9168H47.9156H47.9144H47.9132H47.912H47.9108H47.9096H47.9084H47.9072H47.906H47.9048H47.9036H47.9024H47.9012H47.9H47.8988H47.8976H47.8964H47.8952H47.894H47.8928H47.8916H47.8904H47.8892H47.888H47.8868H47.8856H47.8844H47.8832H47.882H47.8808H47.8796H47.8784H47.8772H47.876H47.8748H47.8736H47.8724H47.8712H47.87H47.8688H47.8676H47.8664H47.8652H47.864H47.8628H47.8616H47.8604H47.8592H47.858H47.8568H47.8556H47.8544H47.8532H47.852H47.8508H47.8496H47.8483H47.8471H47.8459H47.8447H47.8435H47.8423H47.8411H47.8399H47.8387H47.8375H47.8363H47.8351H47.8339H47.8327H47.8315H47.8303H47.8291H47.8279H47.8267H47.8255H47.8243H47.8231H47.8219H47.8207H47.8195H47.8183H47.8171H47.8159H47.8147H47.8135H47.8123H47.8111H47.8099H47.8087H47.8075H47.8063H47.8051H47.8039H47.8027H47.8015H47.8003H47.7991H47.7979H47.7967H47.7955H47.7943H47.7931H47.7919H47.7907H47.7895H47.7883H47.787H47.7858H47.7846H47.7834H47.7822H47.781H47.7798H47.7786H47.7774H47.7762H47.775H47.7738H47.7726H47.7714H47.7702H47.769H47.7678H47.7666H47.7654H47.7642H47.763H47.7618H47.7606H47.7594H47.7582H47.757H47.7558H47.7546H47.7534H47.7522H47.751H47.7498H47.7485H47.7473H47.7461H47.7449H47.7437H47.7425H47.7413H47.7401H47.7389H47.7377H47.7365H47.7353H47.7341H47.7329H47.7317H47.7305H47.7293H47.7281H47.7269H47.7257H47.7245H47.7233H47.7221H47.7209H47.7197H47.7185H47.7172H47.716H47.7148H47.7136H47.7124H47.7112H47.71H47.7088H47.7076H47.7064H47.7052H47.704H47.7028H47.7016H47.7004H47.6992H47.698H47.6968H47.6956H47.6944H47.6932H47.692H47.6907H47.6895C47.3886 93.6532 47.0388 93.5021 46.9283 93.1729Z" fill="#406DA2" stroke="#406DA2"/>
<path d="M43.2827 38.4091V38.9091H43.7827H45.2222C45.368 38.9091 45.5553 38.9869 45.7161 39.1479C45.8768 39.309 45.9548 39.4967 45.9548 39.6429C45.9548 39.9785 45.8701 40.2167 45.7554 40.3601C45.6527 40.4887 45.4936 40.5838 45.2222 40.5838H42.5475C42.4017 40.5838 42.2145 40.506 42.0537 40.3449C41.8929 40.1839 41.8149 39.9962 41.8149 39.8499V34.7074C41.8149 34.5611 41.893 34.3729 42.0539 34.2115C42.2149 34.05 42.4021 33.9722 42.5475 33.9722C42.6931 33.9722 42.8812 34.0503 43.0429 34.212C43.2046 34.3737 43.2827 34.5618 43.2827 34.7074V38.4091Z" fill="#406DA2" stroke="#406DA2"/>
<path d="M72.3061 52.4564L72.3004 52.4507L72.2945 52.4452C69.1175 49.4654 67.5242 45.2919 67.722 40.9035C67.9234 36.9051 69.5205 33.1166 72.306 30.3312L72.3061 30.3311C75.0924 27.5434 78.8729 25.952 82.8504 25.952C86.8349 25.952 90.8202 27.5484 93.5988 30.3309L93.5997 30.3318C93.8687 30.5999 93.9721 31.1022 93.5999 31.4728L93.5985 31.4741C93.3313 31.7422 92.8295 31.8462 92.4568 31.4736C89.8863 28.9017 86.4644 27.6254 82.8504 27.6254C75.5879 27.6254 69.4088 33.6 69.1907 41.063C68.9797 44.9258 70.6936 48.7609 73.4511 51.517C76.2344 54.3015 80.0784 55.5769 83.9063 55.3642L83.9089 55.3641C90.9477 54.9375 96.4943 49.3879 96.9195 42.348L96.9204 42.3329V42.3178C96.9204 40.4374 96.7141 38.5224 96.0708 36.8019C96.0044 36.5984 96.0092 36.3671 96.0858 36.1832C96.1565 36.0133 96.2917 35.8704 96.5411 35.8083L96.5594 35.8038L96.5773 35.7979C96.7848 35.7293 97.0197 35.7336 97.2056 35.811C97.375 35.8816 97.5187 36.0168 97.582 36.2689L97.5902 36.3015L97.6027 36.3327C98.3901 38.3012 98.5944 40.2831 98.5952 42.5103C98.3942 46.2932 96.7988 49.8736 94.2186 52.4551L94.2121 52.4616L94.2059 52.4683C91.6448 55.2263 88.1066 56.8157 84.3557 57.0354C83.7164 56.837 83.2772 56.8355 83.0547 56.8355C79.0703 56.8355 75.0876 55.2392 72.3061 52.4564Z" fill="#406DA2" stroke="#406DA2"/>
<path d="M76.8298 37.7355L76.8295 37.7357C76.1054 38.4599 75.7407 39.3582 75.7407 40.4683C75.7407 41.5778 76.1064 42.4764 76.8296 43.2008L76.8298 37.7355ZM76.8298 37.7355C77.5522 37.0119 78.4502 36.6483 79.5593 36.6483C80.671 36.6483 81.5678 37.0118 82.2916 37.7356C82.2917 37.7356 82.2918 37.7357 82.2918 37.7357L83.5242 38.9694L83.8777 39.3234L84.2315 38.9696L95.952 27.2463L95.9526 27.2458C96.6736 26.5224 97.5728 26.1576 98.6818 26.1576C99.7908 26.1576 100.69 26.5224 101.411 27.2458L101.412 27.2465C102.863 28.6963 102.863 31.2587 101.412 32.7101L101.412 32.7101L84.5512 49.5745L84.5507 49.5751C84.3318 49.7947 84.2165 49.9078 84.1126 49.9775C84.0383 50.0274 83.9809 50.0477 83.8779 50.0477C83.7655 50.0477 83.7 50.0219 83.6472 49.9902C83.5793 49.9493 83.5183 49.8915 83.4082 49.7821C83.408 49.782 83.4079 49.7818 83.4077 49.7817L76.8298 43.2011V37.7355ZM83.5243 47.6095L83.8779 47.9632L84.2315 47.6095L100.269 31.5667C100.269 31.5667 100.269 31.5667 100.269 31.5667C100.695 31.141 100.879 30.5368 100.879 29.9527C100.879 29.3644 100.695 28.7427 100.315 28.2386L100.245 28.1456L100.141 28.093C100.131 28.088 100.121 28.0829 100.111 28.0777C99.7299 27.8852 99.2212 27.6281 98.6832 27.6281C98.4055 27.6281 98.0794 27.6947 97.7864 27.8248C97.5224 27.942 97.2279 28.137 97.0468 28.4417L84.5532 40.9394C84.5532 40.9394 84.5531 40.9395 84.5531 40.9395C84.4656 41.0266 84.2991 41.101 84.0584 41.101C83.8357 41.101 83.5884 41.0354 83.3707 40.9017L81.1493 38.6777C81.1491 38.6775 81.149 38.6774 81.1488 38.6773C80.9129 38.4399 80.6574 38.2427 80.3542 38.1077C80.0488 37.9717 79.7209 37.9104 79.355 37.9104C79.0773 37.9104 78.7513 37.9771 78.4581 38.1071C78.1927 38.2248 77.8971 38.4204 77.7151 38.7261C77.2804 39.1789 77.0028 39.6935 77.0028 40.2626C77.0028 40.5407 77.0706 40.8668 77.2007 41.1594C77.318 41.423 77.5126 41.7177 77.8156 41.8994L83.5243 47.6095Z" fill="#406DA2" stroke="#406DA2"/>
</svg>
