<svg width="109" height="107" viewBox="0 0 109 107" fill="none" xmlns="http://www.w3.org/2000/svg">
<g id="Group">
<g id="Group_2">
<g id="Group_3">
<g id="_x38_39_x2C__Chat_x2C__Dialogue_x2C__Court_Hammer_x2C__Communication">
<g id="Group_4">
<path id="Vector" d="M11.452 106.442L11.3955 106.386L11.3222 106.349C11.2653 106.321 11.1789 106.237 11.1029 106.067C11.0344 105.914 10.9998 105.745 10.9956 105.619L11.9995 97.0183L12.0319 96.7412L11.813 96.5681C5.08163 91.2447 1.32129 83.3599 1.32129 74.8784C1.32129 59.7002 13.7926 47.2743 29.0355 47.2743C32.1953 47.2743 35.1646 47.865 38.1488 48.8558L38.1491 48.856C38.2972 48.905 38.4584 49.0456 38.5648 49.2578C38.6714 49.47 38.6873 49.6822 38.6383 49.8282C38.5893 49.9746 38.4484 50.1354 38.2346 50.2418C38.0251 50.3461 37.8148 50.3637 37.6668 50.3176C34.98 49.2899 32.0974 48.885 29.0355 48.885C14.4519 48.885 2.73844 60.5483 2.73844 75.08C2.73844 83.4716 6.64422 91.0455 13.2177 95.9567L13.254 95.9838L13.2945 96.0039C13.3505 96.0317 13.4272 96.1102 13.4711 96.2413C13.515 96.3724 13.5008 96.4807 13.4731 96.5359L13.4334 96.6151L13.4233 96.7031L12.6171 103.729L12.5157 104.613L13.3234 104.24L21.5878 100.427L21.6696 100.389L21.7274 100.331C21.7284 100.33 21.7297 100.33 21.7314 100.329C21.7421 100.325 21.7594 100.322 21.7809 100.322C21.8024 100.322 21.8199 100.325 21.831 100.329C21.8332 100.33 21.8348 100.331 21.836 100.331L21.9249 100.42L22.0532 100.455C24.3265 101.074 26.5907 101.275 29.0368 101.275C43.6217 101.275 55.3339 89.6116 55.3339 75.08V75.0546C55.3339 74.2894 55.3339 73.4579 55.134 72.6176C55.1554 72.2833 55.3792 71.9205 55.9 71.7686C56.2396 71.7918 56.6026 72.0183 56.7528 72.5393C56.7576 72.9258 56.8032 73.3094 56.8472 73.6809C56.8504 73.7072 56.8535 73.7335 56.8566 73.7597C56.9069 74.1856 56.9539 74.6116 56.9539 75.0813C56.9539 90.2609 44.4826 102.685 29.2384 102.685C26.8507 102.685 24.6755 102.487 22.305 101.898L22.1331 101.855L21.9727 101.93L12.1995 106.499C12.0985 106.499 12.0619 106.499 11.906 106.499C11.8023 106.499 11.6901 106.498 11.5851 106.48C11.4844 106.464 11.4518 106.441 11.4514 106.442C11.4513 106.442 11.4515 106.442 11.452 106.442Z" fill="#406DA2" stroke="#406DA2"/>
<path id="Vector_2" d="M17.6999 90.7858L17.6759 90.7618L17.6471 90.7402C12.9316 87.2178 9.98779 81.5418 9.98779 75.6833C9.98779 65.3188 18.4316 56.7122 29.0371 56.7122C31.1894 56.7122 33.1509 57.0996 35.1327 57.6923C35.2802 57.7437 35.4389 57.8842 35.544 58.0932C35.6506 58.3051 35.6662 58.5164 35.6172 58.6619L35.6168 58.6631C35.5677 58.81 35.4269 58.9706 35.2134 59.0768C35 59.1829 34.7856 59.199 34.6368 59.1494L34.6362 59.1492C32.7934 58.5376 30.9235 58.12 29.0371 58.12C19.492 58.12 11.6078 65.9714 11.6078 75.4831C11.6078 81.0606 14.1017 86.0303 18.6669 89.3368L18.675 89.3427L18.6834 89.3483C18.9689 89.538 19.0617 89.989 18.7456 90.4585L18.7272 90.4858L18.7126 90.5153C18.6088 90.7242 18.3957 90.8424 18.154 90.8424C18.0511 90.8424 17.9388 90.8415 17.8335 90.824C17.7326 90.8071 17.6998 90.7844 17.6993 90.7851C17.6993 90.7851 17.6995 90.7854 17.6999 90.7858Z" fill="#406DA2" stroke="#406DA2"/>
<path id="Vector_3" d="M50.1471 29.7612L50.1471 29.7612L64.4364 43.9949C65.3846 44.7446 66.4812 45.2732 67.7326 45.2732C68.8303 45.2732 70.1035 44.9097 71.0029 44.2122C71.7468 43.2729 72.2684 42.1909 72.2684 40.9561C72.2684 39.6584 71.9018 38.5907 71.0048 37.6972L71.0044 37.6968L70.2381 36.9318C70.0265 36.8026 69.7862 36.7392 69.5698 36.7392C69.3628 36.7392 69.2133 36.7955 69.1238 36.8656C68.9983 37.0726 68.9366 37.3069 68.9366 37.5182C68.9366 37.7503 69.0087 37.9095 69.0916 37.9923M50.1471 29.7612L68.7389 38.3467L69.0919 37.9926M50.1471 29.7612C49.2504 28.868 48.8848 27.7992 48.8848 26.501C48.8848 25.2578 49.4146 24.1673 50.1666 23.2228C51.0613 22.3429 52.1275 21.9824 53.4219 21.9824C54.673 21.9824 55.7682 22.512 56.7169 23.2621L57.5023 24.0436C57.5024 24.0437 57.5025 24.0438 57.5027 24.044C57.5852 24.1268 57.6571 24.2861 57.6571 24.5184C57.6571 24.7299 57.5956 24.964 57.4705 25.1703C57.3811 25.2407 57.2316 25.2972 57.0245 25.2972C56.7984 25.2972 56.5466 25.2278 56.3292 25.0864L55.5625 24.5139C55.103 24.0647 54.3877 23.5918 53.4219 23.5918C52.9761 23.5918 52.5968 23.6475 52.2332 23.8121C51.8759 23.9739 51.574 24.223 51.2557 24.5392L51.2552 24.5397M50.1471 29.7612L51.2552 24.5397M69.0916 37.9923C69.0917 37.9924 69.0918 37.9925 69.0919 37.9926M69.0916 37.9923L69.0919 37.9926M69.0916 37.9923L69.8975 38.7942M69.0919 37.9926L69.8975 38.7942M69.8975 38.7942L69.8978 38.7945M69.8975 38.7942L69.8978 38.7945M69.8978 38.7945C70.5962 39.4884 70.8499 40.2191 70.8499 40.9548C70.8499 41.9368 70.3544 42.66 69.8981 43.1148L69.8975 43.1154C69.5784 43.4324 69.2761 43.6815 68.9187 43.8431C68.5551 44.0075 68.1761 44.0629 67.7312 44.0629C66.7469 44.0629 66.0228 43.5717 65.5645 43.1149C65.5645 43.1149 65.5644 43.1149 65.5644 43.1148M69.8978 38.7945L65.9174 42.7607L65.5644 43.1148M65.5644 43.1148L51.2552 28.8613M65.5644 43.1148L51.2552 28.8613M51.2552 28.8613C51.2552 28.8613 51.2552 28.8613 51.2552 28.8613M51.2552 28.8613L51.2552 28.8613M51.2552 24.5397C50.0513 25.7388 50.0513 27.6622 51.2552 28.8613M51.2552 24.5397L51.2552 28.8613" fill="#406DA2" stroke="#406DA2"/>
<path id="Vector_4" d="M79.775 27.1504L79.7745 27.1499C79.6921 27.0681 79.6198 26.9096 79.6198 26.6773C79.6198 26.4661 79.6814 26.2319 79.807 26.0249C79.8964 25.9549 80.0463 25.8984 80.254 25.8984C80.471 25.8984 80.7111 25.9621 80.9211 26.0909L100.836 45.9259C101.732 46.8193 102.099 47.8882 102.099 49.1861C102.099 50.4122 101.584 51.4899 100.847 52.4253C99.7328 53.1504 98.6361 53.5031 97.3591 53.5031C96.1079 53.5031 95.014 52.9747 94.0657 52.2236L74.3335 32.5709C74.3335 32.5709 74.3334 32.5708 74.3334 32.5707C74.2503 32.488 74.1782 32.3288 74.1782 32.0966C74.1782 31.8853 74.24 31.6513 74.3655 31.4449C74.455 31.3744 74.6044 31.3178 74.8114 31.3178C75.0276 31.3178 75.2679 31.3815 75.4796 31.5113L95.3938 51.3461C95.3939 51.3462 95.3939 51.3462 95.394 51.3462C95.6467 51.5981 96.0017 51.8294 96.3687 51.9981C96.7332 52.1655 97.1593 52.2941 97.5593 52.2941C98.2988 52.2941 99.0299 52.0393 99.726 51.3463L99.7262 51.3461C99.9789 51.0942 100.211 50.74 100.381 50.3738C100.549 50.0106 100.679 49.5852 100.679 49.1861C100.679 48.4489 100.425 47.7194 99.7257 47.0255C99.7255 47.0254 99.7253 47.0252 99.7252 47.0251L79.775 27.1504Z" fill="#406DA2" stroke="#406DA2"/>
<path id="Vector_5" d="M69.0949 37.7916L69.0942 37.7909L56.5994 25.3452C56.5994 25.3452 56.5993 25.3452 56.5993 25.3451C56.5475 25.2932 56.4753 25.1917 56.4155 25.0726C56.387 25.016 56.3662 24.9651 56.3536 24.9256C56.3495 24.9129 56.3469 24.9032 56.3452 24.8963C56.3469 24.8894 56.3496 24.8795 56.3537 24.8665C56.3663 24.8269 56.387 24.7761 56.4155 24.7196C56.4753 24.6006 56.5472 24.4999 56.5982 24.4491L56.5987 24.4487L72.7206 8.38913L72.7207 8.38903C72.8038 8.30616 72.9647 8.23358 73.1995 8.23358C73.4132 8.23358 73.6494 8.29555 73.8573 8.42117C73.9273 8.50922 73.9839 8.65713 73.9839 8.86277C73.9839 9.07707 73.9205 9.31467 73.7917 9.52292L58.5141 24.5387L58.1536 24.8929L58.5117 25.2495L69.1946 35.8887L69.5475 36.2401L69.9003 35.8887L85.0153 20.8334C85.0153 20.8333 85.0153 20.8333 85.0153 20.8333C85.0986 20.7506 85.2592 20.6783 85.4938 20.6783C85.7068 20.6783 85.943 20.7398 86.1523 20.865C86.2221 20.9539 86.2781 21.1021 86.2781 21.3072C86.2781 21.522 86.2147 21.7604 86.0856 21.9698L70.1164 37.8747C70.0879 37.8811 70.0618 37.8879 70.0389 37.8941C69.9559 37.9166 69.869 37.9454 69.7976 37.969L69.7921 37.9709C69.7133 37.997 69.6516 38.0173 69.5983 38.0318C69.5605 38.0421 69.5425 38.0449 69.5392 38.0455C69.4345 38.0443 69.373 38.02 69.3241 37.9908C69.2596 37.9524 69.2004 37.8971 69.0949 37.7916Z" fill="#406DA2" stroke="#406DA2"/>
<path id="Vector_6" d="M94.3655 81.7708L94.5868 81.551C94.9218 81.2182 95.0349 80.9451 95.0433 80.7271L93.6368 69.3203L93.6016 69.0348L93.8307 68.8609C97.9997 65.6962 101.38 61.5398 103.767 56.9825C106.351 52.0349 107.742 46.4925 107.742 40.7532C107.742 32.8377 105.16 25.317 100.389 18.9784C95.6153 13.0372 89.0541 8.48638 81.7081 6.30726C81.1661 6.17573 80.8292 6.42827 80.7083 6.76782C80.6409 7.05123 80.6839 7.26531 80.7664 7.41612C80.8512 7.57109 80.9952 7.69205 81.1829 7.75666C95.8984 12.0348 106.121 25.4752 106.121 40.7532C106.121 51.7062 101.248 61.6621 92.5125 68.1831C92.3342 68.5459 92.2231 68.8009 92.215 69.0321L93.4213 78.8335L93.5312 79.7259L92.7152 79.3484L81.5302 74.1745H81.5294H81.5279H81.5264H81.5249H81.5234H81.5219H81.5204H81.5189H81.5173H81.5158H81.5143H81.5127H81.5112H81.5097H81.5081H81.5066H81.505H81.5035H81.5019H81.5004H81.4988H81.4973H81.4957H81.4941H81.4926H81.491H81.4894H81.4878H81.4863H81.4847H81.4831H81.4815H81.4799H81.4783H81.4767H81.4751H81.4735H81.4719H81.4703H81.4687H81.4671H81.4655H81.4639H81.4622H81.4606H81.459H81.4574H81.4557H81.4541H81.4525H81.4508H81.4492H81.4476H81.4459H81.4443H81.4426H81.441H81.4393H81.4377H81.436H81.4344H81.4327H81.4311H81.4294H81.4277H81.4261H81.4244H81.4227H81.4211H81.4194H81.4177H81.416H81.4144H81.4127H81.411H81.4093H81.4076H81.4059H81.4042H81.4026H81.4009H81.3992H81.3975H81.3958H81.3941H81.3924H81.3907H81.389H81.3873H81.3855H81.3838H81.3821H81.3804H81.3787H81.377H81.3753H81.3736H81.3718H81.3701H81.3684H81.3667H81.3649H81.3632H81.3615H81.3598H81.358H81.3563H81.3546H81.3528H81.3511H81.3494H81.3476H81.3459H81.3441H81.3424H81.3407H81.3389H81.3372H81.3354H81.3337H81.3319H81.3302H81.3284H81.3267H81.3249H81.3232H81.3214H81.3197H81.3179H81.3162H81.3144H81.3126H81.3109H81.3091H81.3074H81.3056H81.3039H81.3021H81.3003H81.2986H81.2968H81.295H81.2933H81.2915H81.2897H81.288H81.2862H81.2845H81.2827H81.2809H81.2791H81.2774H81.2756H81.2738H81.2721H81.2703H81.2685H81.2668H81.265H81.2632H81.2614H81.2597H81.2579H81.2561H81.2544H81.2526H81.2508H81.249H81.2473H81.2455H81.2437H81.2419H81.2402H81.2384H81.2366H81.2349H81.2331H81.2313H81.2295H81.2278H81.226H81.2242H81.2224H81.2207H81.2189H81.2171H81.2154H81.2136H81.2118H81.21H81.2083H81.2065H81.2047H81.203H81.2012H81.1994H81.1977H81.1959H81.1941H81.1923H81.1906H81.1888H81.187H81.1853H81.1835H81.1818H81.18H81.1782H81.1765H81.1747H81.1729H81.1712H81.1694H81.1677H81.1659H81.1641H81.1624H81.1606H81.1589H81.1571H81.1554H81.1536H81.1519H81.1501H81.1484H81.1466H81.1449H81.1431H81.1414H81.1396H81.1379H81.1361H81.1344H81.1327H81.1309H81.1292H81.1274H81.1257H81.124H81.1222H81.1205H81.1188H81.117H81.1153H81.1136H81.1118H81.1101H81.1084H81.1067H81.1049H81.1032H81.1015H81.0998H81.0981H81.0964H81.0947H81.0929H81.0912H81.0895H81.0878H81.0861H81.0844H81.0827H81.081H81.0793H81.0776H81.0759H81.0742H81.0725H81.0708H81.0691H81.0675H81.0658H81.0641H81.0624H81.0607H81.059H81.0574H81.0557H81.054H81.0524H81.0507H81.049H81.0474H81.0457H81.044H81.0424H81.0407H81.0391H81.0374H81.0358H81.0341H81.0325H81.0308H81.0292H81.0275H81.0259H81.0243H81.0226H81.021H81.0194H81.0178H81.0161H81.0145H81.0129H81.0113H81.0097H81.008H81.0064H81.0048H81.0032H81.0016H81H80.9984H80.9968H80.9952H80.9937H80.9921H80.9905H80.9889H80.9873H80.9857H80.9842H80.9826H80.981H80.9795H80.9779H80.9764H80.9748H80.9732H80.9717H80.9701H80.9686H80.9671H80.9655H80.964H80.9624H80.9609H80.9594H80.9579H80.9563H80.9548H80.9533H80.9518H80.9503H80.9488H80.9473H80.9458H80.9443H80.9428H80.9413H80.9398H80.9383H80.9368H80.9354H80.9339H80.9324H80.931H80.9295H80.928H80.9266H80.9251H80.9237H80.9222H80.9208H80.9193H80.9179H80.9165H80.915H80.9136H80.9122H80.9108H80.9094H80.9079H80.9065H80.9051H80.9037H80.9036C78.0526 74.98 75.0086 75.3797 71.9663 75.3797C66.436 75.3797 61.1201 73.9528 56.2235 71.5139L56.2157 71.51L56.2158 71.51C51.5052 69.0604 47.4202 65.3964 44.1584 61.1314L44.1507 61.1213L44.1509 61.1212C41.5001 57.4671 39.452 53.393 38.4262 49.1008L38.4254 49.0974C37.8151 46.4637 37.4048 43.8135 37.4048 40.9548C37.4048 22.2148 52.1312 7.14088 70.7393 6.53011L70.7475 6.52984H70.7557C70.896 6.52984 71.0781 6.45482 71.235 6.29862C71.392 6.14229 71.4663 5.96193 71.4663 5.82458C71.4663 5.63109 71.4008 5.45284 71.2904 5.32925C71.1893 5.21605 71.0276 5.12163 70.7654 5.11937C61.4198 5.51853 52.6786 9.28229 46.1229 16.0092M94.3655 81.7708L42.9418 62.1368C40.1643 58.3815 38.1756 54.0282 36.9805 49.4705C36.3824 46.6883 35.9863 43.7177 35.9863 40.9548C35.9863 31.649 39.5638 22.741 46.1229 16.0092M94.3655 81.7708L81.4446 75.8309L81.2813 75.7558L81.1076 75.8019C78.1246 76.5934 75.1433 76.9905 72.1665 76.9905C66.405 76.9905 60.8389 75.6056 55.6649 73.0296C50.6977 70.455 46.3221 66.6934 42.9422 62.1373L94.3655 81.7708ZM46.1229 16.0092L45.7648 15.6602M46.1229 16.0092L45.7648 15.6602M45.7648 15.6602C39.114 22.4861 35.4863 31.5196 35.4863 40.9548C35.4863 43.7657 35.8894 46.7769 36.494 49.5865L71.9663 5.82458C71.9663 5.22262 71.5619 4.61932 70.7557 4.61932C61.2834 5.02108 52.4156 8.83574 45.7648 15.6602Z" fill="#406DA2" stroke="#406DA2"/>
<path id="Vector_7" d="M72.6192 3.26134L72.6196 3.26095C73.3165 2.56865 74.0459 2.31349 74.7845 2.31349C75.4412 2.31349 76.4349 2.522 76.9848 3.29485L91.2601 17.5159L72.6192 3.26134ZM72.6192 3.26134C71.8978 3.97963 71.6499 4.94003 71.8672 5.88807C71.8806 6.2783 72.0161 6.59493 72.1564 6.84621C72.2214 6.96266 72.2921 7.07275 72.3516 7.16553C72.3581 7.17566 72.3645 7.1856 72.3707 7.1953C72.4379 7.30029 72.488 7.3808 72.5257 7.45549L72.562 7.52746M72.6192 3.26134L72.562 7.52746M72.562 7.52746L72.6191 7.58436M72.562 7.52746L72.6191 7.58436M72.6191 7.58436L86.927 21.8365M72.6191 7.58436L86.927 21.8365M86.927 21.8365C86.9271 21.8366 86.9271 21.8366 86.9271 21.8367M86.927 21.8365L86.9271 21.8367M86.9271 21.8367C87.3849 22.2929 88.109 22.7859 89.0938 22.7859M86.9271 21.8367L89.0938 22.7859M89.0938 22.7859C89.5396 22.7859 89.9194 22.7302 90.2832 22.5653M89.0938 22.7859L90.2832 22.5653M90.2832 22.5653C90.6408 22.4033 90.9428 22.1537 91.2606 21.8366M90.2832 22.5653L91.2606 21.8366M91.2606 21.8366C91.7192 21.3809 92.2125 20.6577 92.2125 19.6765C92.2125 18.9409 91.9589 18.2103 91.2606 17.5164V21.8366ZM91.2606 21.8366C91.2604 21.8368 91.2603 21.837 91.2601 21.8371L90.9077 21.4824C90.3044 22.0844 89.9 22.2859 89.0938 22.2859L91.2606 21.8366ZM71.511 8.48158L71.5108 8.48138C70.7816 7.75573 70.4237 7.04684 70.2413 6.14647C70.0617 4.66874 70.4344 3.2347 71.5107 2.16429L71.511 2.16402C72.4083 1.27022 73.4805 0.904297 74.7845 0.904297C76.0356 0.904297 77.1322 1.43397 78.0807 2.18393L92.3714 16.4176C93.2681 17.3109 93.6337 18.3797 93.6337 19.6765C93.6337 20.9111 93.1122 21.9943 92.3697 22.9335C91.4648 23.6316 90.1939 23.9936 89.0952 23.9936C87.8441 23.9936 86.7501 23.4653 85.7988 22.7151L71.511 8.48158Z" fill="#406DA2" stroke="#406DA2"/>
<path id="Vector_8" d="M81.7435 61.8314V61.9122L81.769 61.9889C81.7994 62.0805 81.7818 62.2002 81.6682 62.3275C81.5504 62.4597 81.3794 62.5366 81.2358 62.5366C81.0953 62.5366 80.9131 62.4616 80.7564 62.3058C80.5997 62.1498 80.5252 61.9695 80.5252 61.8314V57.6149C80.5252 56.1331 79.2919 54.9073 77.8096 54.9073H54.2295C52.7465 54.9073 51.5112 56.1325 51.5112 57.6149V61.8314C51.5112 61.9699 51.4368 62.1503 51.2805 62.3062C51.1242 62.462 50.9428 62.5366 50.8033 62.5366C50.6628 62.5366 50.4806 62.4616 50.324 62.3058C50.1672 62.1498 50.0928 61.9695 50.0928 61.8314V57.6149C50.0928 55.2837 51.8823 53.4981 54.2295 53.4981H77.6068C79.9539 53.4981 81.7435 55.2837 81.7435 57.6149V61.8314Z" fill="#406DA2" stroke="#406DA2"/>
<path id="Vector_9" d="M84.862 62.5367H43.7493C43.6088 62.5367 43.4271 62.4618 43.2708 62.3061C43.1145 62.1503 43.04 61.9699 43.04 61.8314C43.04 61.6937 43.1143 61.5133 43.271 61.3571C43.4275 61.2011 43.6092 61.1262 43.7493 61.1262H84.8633C85.0036 61.1262 85.1857 61.2012 85.3426 61.3574C85.4993 61.5134 85.5736 61.6934 85.5739 61.8307C85.5734 62.0257 85.5075 62.2039 85.3974 62.3271C85.2954 62.4413 85.131 62.5367 84.862 62.5367Z" fill="#406DA2" stroke="#406DA2"/>
</g>
</g>
</g>
</g>
</g>
</svg>
