<svg width="120" height="107" viewBox="0 0 120 107" fill="none" xmlns="http://www.w3.org/2000/svg">
<path d="M30.6269 47.2714L30.6269 47.2714L48.2669 64.8895L30.6269 47.2714ZM30.6269 47.2714C29.6418 46.2877 29.2505 45.1163 29.2505 43.9295C29.2505 42.7574 29.85 41.3619 30.6268 40.5862C30.6268 40.5862 30.6268 40.5861 30.6269 40.5861L34.5484 36.6715L34.5484 36.6715M30.6269 47.2714L34.5484 36.6715M34.5484 36.6715C34.6481 36.572 34.8327 36.4915 35.0929 36.4915C35.3323 36.4915 35.5973 36.5615 35.8313 36.7041C35.9158 36.8079 35.9808 36.9799 35.9808 37.2135C35.9808 37.4553 35.9092 37.723 35.7639 37.9577L31.8804 41.8343L31.8803 41.8344M34.5484 36.6715L31.8803 41.8344M31.8803 41.8344C31.3295 42.3844 31.0803 43.1763 31.0803 43.9295C31.0803 44.6811 31.328 45.4716 31.8803 46.0231L31.8803 46.0231M31.8803 41.8344L31.8803 46.0231M31.8803 46.0231L49.5209 63.6375M31.8803 46.0231L49.5209 63.6375M54.9444 64.9083L54.9642 64.8886L58.8476 61.012C58.994 60.7756 59.0657 60.5074 59.0657 60.2658C59.0657 60.0322 59.0005 59.8598 58.9149 59.7552C58.6826 59.613 58.4178 59.5429 58.1778 59.5429C57.9169 59.5429 57.7317 59.6236 57.6323 59.7228C57.6323 59.7228 57.6322 59.7229 57.6322 59.7229L53.7141 63.6369L54.9444 64.9083ZM54.9444 64.9083L54.9269 64.9302M54.9444 64.9083L54.9269 64.9302M54.9269 64.9302C54.1895 65.8522 52.8433 66.2662 51.6165 66.2662C50.4459 66.2662 49.048 65.6666 48.2675 64.8901L54.9269 64.9302ZM49.5209 63.6375C50.0715 64.1873 50.8641 64.4362 51.6165 64.4362M49.5209 63.6375L51.6165 64.4362M51.6165 64.4362C52.3676 64.4362 53.1622 64.1895 53.7136 63.6375L51.6165 64.4362Z" fill="#406DA2" stroke="#406DA2"/>
<path d="M40.4287 32.0504L40.427 32.0487C40.3281 31.9503 40.2476 31.7668 40.2476 31.5072C40.2476 31.2657 40.3193 30.998 40.4653 30.7634L59.5926 11.6628C59.6923 11.5633 59.8769 11.4828 60.1372 11.4828C60.3767 11.4828 60.6418 11.5529 60.8759 11.6957C60.9609 11.7995 61.0261 11.9714 61.0261 12.2049C61.0261 12.4464 60.9543 12.7141 60.8084 12.9487L41.681 32.0479L41.6228 32.1059L41.5863 32.1796C41.5496 32.2537 41.511 32.2811 41.435 32.3028C41.3247 32.3344 41.1812 32.3381 40.9454 32.3381C40.8193 32.3381 40.7445 32.3092 40.6847 32.2735C40.6104 32.2291 40.5432 32.1655 40.4287 32.0504Z" fill="#406DA2" stroke="#406DA2"/>
<path d="M78.1049 40.7495L78.1037 40.7484C78.0053 40.6501 77.9248 40.4664 77.9248 40.2063C77.9248 39.9645 77.9964 39.6968 78.1417 39.4622L82.8964 34.7156L82.897 34.715C82.9956 34.6162 83.1797 34.5355 83.4402 34.5355C83.6797 34.5355 83.9446 34.6056 84.1778 34.7481C84.2633 34.8527 84.3284 35.025 84.3284 35.2585C84.3284 35.5001 84.2567 35.7683 84.1104 36.0047L79.4151 40.692C79.2214 40.7879 79.0433 40.8753 78.888 40.9416C78.8014 40.9786 78.7312 41.0049 78.6771 41.0213C78.637 41.0335 78.6177 41.0365 78.6146 41.0371C78.4927 41.0361 78.4195 41.0077 78.3609 40.9726C78.2866 40.9282 78.2193 40.8646 78.1049 40.7495Z" fill="#406DA2" stroke="#406DA2"/>
<path d="M68.3046 49.0678L68.3046 49.0677C68.4032 48.9693 68.5875 48.8888 68.8484 48.8888C69.1044 48.8888 69.3892 48.9685 69.6333 49.1304C69.7769 49.2258 69.8371 49.357 69.8203 49.5731C69.8026 49.802 69.6939 50.0844 69.52 50.3554L64.7654 55.1034L64.7075 55.1613L64.671 55.2346C64.6348 55.3074 64.5964 55.335 64.5194 55.357C64.4086 55.3886 64.2647 55.3922 64.0298 55.3922C63.905 55.3922 63.8304 55.3634 63.7699 55.3271C63.6946 55.2818 63.6276 55.2182 63.5118 55.1033C63.4132 55.004 63.333 54.8196 63.333 54.5594C63.333 54.3169 63.4046 54.0489 63.5499 53.8144L68.3046 49.0678Z" fill="#406DA2" stroke="#406DA2"/>
<path d="M68.3065 50.3186L68.3055 50.3175C68.206 50.2182 68.1255 50.0342 68.1255 49.7746C68.1255 49.533 68.1972 49.2647 68.3435 49.0284L77.8866 39.4987L77.8866 39.4987L77.8889 39.4964C77.9463 39.4383 78.0587 39.3589 78.1911 39.293C78.2541 39.2616 78.3116 39.2384 78.3574 39.2239C78.3804 39.2167 78.3958 39.2131 78.4042 39.2114C78.4125 39.2131 78.4276 39.2167 78.4502 39.2238C78.4959 39.2383 78.5534 39.2615 78.6163 39.2929C78.7487 39.3588 78.8611 39.4383 78.9185 39.4964L78.9185 39.4964L78.9208 39.4987L117.252 77.7737C118.679 79.1984 119.5 81.2442 119.5 83.2919C119.5 85.3216 118.692 87.1673 117.23 88.8341L117.23 88.8341L117.226 88.8385C116.022 90.2439 114.205 91.0575 112.161 91.0575C110.133 91.0575 108.29 90.2542 106.623 88.8014L68.3065 50.3186ZM70.4337 49.4412L70.0693 49.795L70.4286 50.1538L107.888 87.5603C109.087 88.7579 110.528 89.2288 112.16 89.2288C113.835 89.2288 115.25 88.5106 116.393 87.5971L116.415 87.5799L116.435 87.5603C117.634 86.3626 118.106 84.923 118.106 83.2919C118.106 81.6185 117.386 80.2064 116.471 79.0646L116.454 79.0424L116.434 79.0224L78.9745 41.8334L78.6261 41.4875L78.2739 41.8295L70.4337 49.4412Z" fill="#406DA2" stroke="#406DA2"/>
<path d="M92.4798 24.9276L92.4797 24.9276L88.5962 28.8043C88.4509 29.0389 88.3793 29.3069 88.3793 29.5493C88.3793 29.8095 88.4595 29.994 88.5581 30.0932C88.6739 30.2081 88.7408 30.2717 88.8162 30.317C88.8766 30.3533 88.9513 30.3821 89.076 30.3821C89.311 30.3821 89.4546 30.3785 89.5652 30.3468C89.6418 30.3249 89.6804 30.2973 89.717 30.2236L89.7535 30.1499L89.8117 30.0918L93.7329 26.1776L92.4798 24.9276ZM92.4798 24.9276C93.0309 24.3772 93.2784 23.585 93.2784 22.8339C93.2784 22.0838 93.0314 21.2897 92.4782 20.7401C92.4778 20.7398 92.4775 20.7395 92.4772 20.7391L74.8377 3.12444C74.2871 2.57462 73.4945 2.32581 72.7421 2.32581C71.9894 2.32581 71.1961 2.57258 70.6448 3.12474C70.6447 3.12483 70.6446 3.12493 70.6445 3.12502L66.7264 7.03907C66.7264 7.0391 66.7264 7.03912 66.7263 7.03914C66.6269 7.1384 66.4417 7.21909 66.1808 7.21909C65.9407 7.21909 65.6758 7.14884 65.4434 7.00652C65.3583 6.90275 65.293 6.73073 65.293 6.49702C65.293 6.25546 65.3647 5.98785 65.5106 5.75316L69.3945 1.87622L69.3945 1.87616M92.4798 24.9276L69.3945 1.87616M69.3945 1.87616C70.3799 0.892199 71.5533 0.5 72.7436 0.5M69.3945 1.87616L72.7436 0.5M72.7436 0.5C73.9147 0.5 75.3125 1.09862 76.0926 1.87617M72.7436 0.5L76.0926 1.87617M76.0926 1.87617C76.0927 1.87626 76.0928 1.87636 76.0929 1.87645M76.0926 1.87617L76.0929 1.87645M76.0929 1.87645L93.7332 19.4906C94.7185 20.4745 95.111 21.646 95.111 22.8339C95.111 24.0026 94.5105 25.3996 93.7333 26.1772L76.0929 1.87645Z" fill="#406DA2" stroke="#406DA2"/>
<path d="M58.5513 61.6816L58.5292 61.6523L58.5031 61.6264L33.8948 37.2687C33.8946 37.2684 33.8944 37.2682 33.8941 37.268C32.3471 35.7237 32.3469 33.2155 33.8949 31.6682C33.895 31.6681 33.8951 31.668 33.8951 31.668L35.4193 30.1473L35.4201 30.1466C36.1987 29.3665 37.1614 28.9871 38.1137 28.9871C39.1129 28.9871 40.2392 29.3936 40.7624 30.0929L40.7841 30.122L40.8098 30.1476L41.4642 30.7996L41.4646 30.8L65.2011 54.5032C65.2011 54.5032 65.2012 54.5033 65.2013 54.5034C66.7468 56.0495 66.7465 58.5599 65.2012 60.1043L65.172 60.1335L65.148 60.1671L64.0839 61.6547C63.3173 62.4051 62.3671 62.7852 61.2004 62.7852C60.2011 62.7852 59.0745 62.3786 58.5513 61.6816ZM36.5848 31.3013L36.4939 31.3464L36.4278 31.4234L35.1313 32.9322C34.2969 33.7812 34.3011 35.1748 35.146 36.0167L35.1472 36.0178L59.7566 60.3739C60.0857 60.7054 60.6602 60.9551 61.4153 60.9551C61.9746 60.9551 62.5056 60.6888 62.9111 60.4854C62.9233 60.4793 62.9354 60.4732 62.9474 60.4672L63.0196 60.431L63.0768 60.374L64.6013 58.8516C65.45 58.0041 65.4506 56.5994 64.6009 55.7528L63.9461 55.1003L63.9461 55.1003L63.9432 55.0975L39.7705 31.3937L39.7143 31.3385L39.6438 31.3033C39.6272 31.2951 39.6104 31.2866 39.5933 31.2781C39.1934 31.0779 38.6668 30.8143 38.1123 30.8143C37.5636 30.8143 37.039 31.0753 36.6412 31.2733C36.6221 31.2828 36.6033 31.2922 36.5848 31.3013Z" fill="#406DA2" stroke="#406DA2"/>
<path d="M83.5962 36.6715L83.5742 36.6421L83.5481 36.6163L58.9398 12.2586C58.9395 12.2583 58.9393 12.2581 58.939 12.2578C57.392 10.7135 57.3918 8.20531 58.9399 6.65796C58.94 6.65792 58.94 6.65787 58.94 6.65782L60.4642 5.13721L60.465 5.13646C61.2436 4.35637 62.2063 3.97693 63.1587 3.97693C64.1592 3.97693 65.2841 4.38345 65.8073 5.08277L65.8289 5.1116L65.8543 5.13704L90.4641 29.7122L90.4644 29.7125C91.2446 30.4904 91.6255 31.4517 91.6255 32.4017C91.6255 33.3987 91.2187 34.5235 90.518 35.0474L90.4893 35.0688L90.4641 35.0941L88.9396 36.6164L88.9146 36.6414L88.8933 36.6696C88.3614 37.3767 87.4446 37.7751 86.2453 37.7751C85.2447 37.7751 84.1194 37.3685 83.5962 36.6715ZM61.6312 6.2912L61.5579 6.32753L61.5001 6.38532L59.9756 7.90768C59.1269 8.7552 59.1263 10.1598 59.9759 11.0064C59.9759 11.0065 59.9759 11.0065 59.976 11.0065L84.5853 35.5827L84.92 35.2476L84.5853 35.5828C84.9127 35.9096 85.486 36.1625 86.2467 36.1625C86.904 36.1625 87.2657 35.9589 87.5732 35.7859C87.6424 35.7469 87.7089 35.7095 87.7754 35.6763L87.8479 35.6401L87.9053 35.5828L89.4298 34.0604L89.4322 34.0581C89.7556 33.7308 90.0121 33.1635 90.0121 32.4003C90.0121 31.8519 89.7505 31.3277 89.5524 30.9306C89.5428 30.9115 89.5334 30.8927 89.5242 30.8742L89.4872 30.7998L89.4282 30.7415L64.8171 6.38517L64.7603 6.32893L64.6887 6.29322C64.6721 6.2849 64.6552 6.27644 64.638 6.26786C64.2384 6.06778 63.7118 5.80417 63.1587 5.80417C62.6099 5.80417 62.0854 6.0652 61.6876 6.26317C61.6685 6.27267 61.6497 6.28202 61.6312 6.2912Z" fill="#406DA2" stroke="#406DA2"/>
<path d="M78.8394 106.5C78.6756 106.5 78.4701 106.413 78.2956 106.238C78.121 106.063 78.0341 105.858 78.0341 105.694V101.344C78.0341 97.6 74.9907 94.3197 70.9991 94.3197H62.5069C62.3427 94.3197 62.1371 94.2327 61.9627 94.0585C61.7882 93.8841 61.7017 93.679 61.7017 93.5163C61.7017 93.3536 61.7885 93.1477 61.9636 92.9723C62.1388 92.7969 62.3443 92.71 62.5069 92.71H70.9991C75.7341 92.71 79.6475 96.6203 79.6475 101.344V105.693C79.6469 106.051 79.5576 106.228 79.4662 106.319C79.3748 106.411 79.1976 106.5 78.8394 106.5Z" fill="#406DA2" stroke="#406DA2"/>
<path d="M6.75254 106.5C6.58871 106.5 6.38324 106.413 6.20872 106.238C6.03418 106.063 5.94727 105.858 5.94727 105.694V101.344C5.94727 96.6188 9.86071 92.71 14.5928 92.71H23.0879C23.2517 92.71 23.4572 92.797 23.6317 92.9717C23.8062 93.1465 23.8931 93.3524 23.8931 93.5163C23.8931 93.6795 23.8064 93.8845 23.6318 94.0587C23.4572 94.2329 23.2515 94.3197 23.0879 94.3197H14.5928C10.845 94.3197 7.56069 97.3595 7.56069 101.344V105.693C7.5601 105.993 7.45258 106.181 7.3194 106.299C7.17711 106.426 6.97331 106.5 6.75254 106.5Z" fill="#406DA2" stroke="#406DA2"/>
<path d="M61.2008 92.7085H61.7008V92.2085V89.1652C61.7008 85.418 58.6542 82.1409 54.6658 82.1409H30.7095C26.9617 82.1409 23.6773 85.1806 23.6773 89.1652V92.2085V92.7085H24.1773H24.3937H61.2008ZM62.5061 94.3197H23.0884C22.9231 94.3197 22.7167 94.2324 22.5418 94.0581C22.3669 93.8836 22.2803 93.6786 22.2803 93.5163V89.1667C22.2803 84.4415 26.1936 80.5325 30.9287 80.5325H54.8851C59.6171 80.5325 63.5306 84.4428 63.5306 89.1667V93.4322C63.3347 93.9739 63.023 94.3197 62.5061 94.3197Z" fill="#406DA2" stroke="#406DA2"/>
<path d="M95.9788 105.694V105.695C95.9794 106.052 95.8904 106.229 95.7997 106.32C95.709 106.411 95.5324 106.5 95.175 106.5H1.30814C1.14408 106.5 0.937707 106.413 0.762368 106.238C0.586986 106.063 0.5 105.857 0.5 105.694C0.5 105.531 0.586778 105.326 0.761851 105.152C0.936863 104.977 1.14336 104.89 1.30814 104.89H95.1736C95.3378 104.89 95.5434 104.977 95.7178 105.152C95.8923 105.326 95.9788 105.531 95.9788 105.694Z" fill="#406DA2" stroke="#406DA2"/>
</svg>
